<?xml version="1.0" encoding="UTF-8"?>
<svg xmlns="http://www.w3.org/2000/svg"
     xmlns:xlink="http://www.w3.org/1999/xlink"
     xmlns:gadfly="http://www.gadflyjl.org/ns"
     version="1.2"
     width="141.42mm" height="100mm" viewBox="0 0 141.42 100"
     stroke="none"
     fill="#000000"
     stroke-width="0.3"
     font-size="3.88"
>
<g class="plotroot xscalable yscalable" id="img-ed89aa8b-1">
  <g font-size="3.88" font-family="'PT Sans','Helvetica Neue','Helvetica',sans-serif" fill="#564A55" stroke="#000000" stroke-opacity="0.000" id="img-ed89aa8b-2">
    <text x="77.12" y="88.39" text-anchor="middle" dy="0.6em">x</text>
  </g>
  <g class="guide xlabels" font-size="2.82" font-family="'PT Sans Caption','Helvetica Neue','Helvetica',sans-serif" fill="#6C606B" id="img-ed89aa8b-3">
    <text x="19.83" y="81.72" text-anchor="middle" dy="0.6em">2000</text>
    <text x="58.04" y="81.72" text-anchor="middle" dy="0.6em">2005</text>
    <text x="96.23" y="81.72" text-anchor="middle" dy="0.6em">2010</text>
    <text x="134.42" y="81.72" text-anchor="middle" dy="0.6em">2015</text>
  </g>
<g clip-path="url(#img-ed89aa8b-4)">
  <g id="img-ed89aa8b-5">
    <g pointer-events="visible" opacity="1" fill="#000000" fill-opacity="0.000" stroke="#000000" stroke-opacity="0.000" class="guide background" id="img-ed89aa8b-6">
      <rect x="17.83" y="5" width="118.6" height="75.72"/>
    </g>
    <g class="guide ygridlines xfixed" stroke-dasharray="0.5,0.5" stroke-width="0.2" stroke="#D0D0E0" id="img-ed89aa8b-7">
      <path fill="none" d="M17.83,78.72 L 136.42 78.72"/>
      <path fill="none" d="M17.83,64.37 L 136.42 64.37"/>
      <path fill="none" d="M17.83,50.03 L 136.42 50.03"/>
      <path fill="none" d="M17.83,35.69 L 136.42 35.69"/>
      <path fill="none" d="M17.83,21.34 L 136.42 21.34"/>
      <path fill="none" d="M17.83,7 L 136.42 7"/>
    </g>
    <g class="guide xgridlines yfixed" stroke-dasharray="0.5,0.5" stroke-width="0.2" stroke="#D0D0E0" id="img-ed89aa8b-8">
      <path fill="none" d="M19.83,5 L 19.83 80.72"/>
      <path fill="none" d="M58.04,5 L 58.04 80.72"/>
      <path fill="none" d="M96.23,5 L 96.23 80.72"/>
      <path fill="none" d="M134.42,5 L 134.42 80.72"/>
    </g>
    <g class="plotpanel" id="img-ed89aa8b-9">
      <g stroke-width="0.3" fill="#000000" fill-opacity="0.000" class="geometry" stroke-dasharray="none" stroke="#00BFFF" id="img-ed89aa8b-10">
        <path fill="none" d="M19.83,7.43 L 19.99 7.57 20.16 7.72 20.33 7.86 20.5 8 20.66 8.15 20.83 8.29 21 8.29 21.16 8.29 21.33 8.29 21.5 8.29 21.67 10.01 21.83 10.01 22 8.29 22.17 9.15 22.34 8.43 22.5 8.29 22.67 8.29 22.84 8.29 23 8.29 23.17 8.29 23.34 8.29 23.51 8.29 23.67 8.29 23.84 8.29 24.01 8.29 24.18 8.29 24.34 8.29 24.51 8.29 24.68 8.43 24.85 8.29 25.01 8.29 25.18 13.6 25.35 8.29 25.51 8.29 25.68 8.29 25.85 8.29 26.02 8.29 26.18 8.43 26.35 8.29 26.52 8.29 26.69 8.29 26.85 8.29 27.02 8.29 27.19 8.29 27.36 8.29 27.48 8.29 27.65 8.29 27.82 8.29 27.98 8.29 28.15 8.29 28.32 8.29 28.48 8.29 28.65 8.29 28.82 9.29 28.99 8.29 29.15 8.15 29.32 8.43 29.49 13.88 29.66 8.72 29.82 8.43 29.99 8.15 30.16 8.29 30.33 8.29 30.49 8.29 30.66 8.29 30.83 8.29 30.99 8.29 31.16 8.29 31.33 8.43 31.5 8.43 31.66 8.43 31.83 8.72 32 9.01 32.17 8.58 32.33 8.43 32.5 8.29 32.67 8.15 32.84 8.43 33 8.15 33.17 8.15 33.34 9.58 33.5 8.29 33.67 8.29 33.84 8.29 34.01 21.77 34.17 8.29 34.34 8.29 34.51 8.29 34.68 8.29 34.84 8.29 35.01 8.29 35.11 8.29 35.28 8.29 35.45 8.15 35.62 8.29 35.78 8.15 35.95 8.29 36.12 8.29 36.29 8.29 36.45 8.29 36.62 9.29 36.79 8.86 36.96 8.72 37.12 8.43 37.29 8.58 37.46 8.72 37.62 8.29 37.79 8.29 37.96 8.43 38.13 9.29 38.29 8.29 38.46 8.15 38.63 8.29 38.8 8.29 38.96 8.29 39.13 8.29 39.3 8.29 39.47 8.29 39.63 8.29 39.8 8.29 39.97 8.43 40.13 8.29 40.3 8.29 40.47 8.72 40.64 8.29 40.8 8.29 40.97 8.58 41.14 9.15 41.31 9.01 41.47 9.29 41.64 9.29 41.81 8.58 41.98 8.86 42.14 10.16 42.31 9.44 42.48 8.86 42.64 8.72 42.75 8.29 42.92 8.86 43.08 9.01 43.25 8.58 43.42 9.73 43.59 8.29 43.75 8.58 43.92 9.01 44.09 8.29 44.26 8.29 44.42 8.58 44.59 8.86 44.76 8.43 44.92 8.43 45.09 8.43 45.26 8.29 45.43 8.29 45.59 8.29 45.76 8.29 45.93 8.29 46.1 8.72 46.26 8.29 46.43 8.29 46.6 8.29 46.76 8.29 46.93 8.29 47.1 8.29 47.27 8.43 47.43 8.29 47.6 8.29 47.77 8.29 47.94 8.29 48.1 8.29 48.27 8.29 48.44 8.58 48.61 8.43 48.77 8.15 48.94 8.29 49.11 9.44 49.27 8.29 49.44 8.43 49.61 8.15 49.78 8.15 49.94 8.29 50.11 8.15 50.28 8.72 50.38 8.29 50.55 8.43 50.72 8.29 50.89 8.72 51.05 8.72 51.22 8.29 51.39 8.29 51.55 8.29 51.72 8.29 51.89 8.43 52.06 8.58 52.22 8.29 52.39 8.43 52.56 8.43 52.73 8.43 52.89 8.29 53.06 8.29 53.23 8.29 53.4 8.29 53.56 8.29 53.73 8.29 53.9 8.29 54.06 8.29 54.23 8.29 54.4 8.58 54.57 15.46 54.73 8.58 54.9 8.29 55.07 8.29 55.24 8.86 55.4 8.29 55.57 8.29 55.74 8.58 55.9 8.29 56.07 8.29 56.24 8.29 56.41 8.43 56.57 8.29 56.74 8.15 56.91 8.58 57.08 8.58 57.24 9.01 57.41 8.15 57.58 8.72 57.75 8.29 57.91 8.72 58.04 9.15 58.21 9.15 58.37 9.01 58.54 8.86 58.71 8.86 58.87 8.43 59.04 8.58 59.21 8.29 59.38 11.45 59.54 10.3 59.71 8.86 59.88 8.29 60.05 8.43 60.21 8.72 60.38 9.15 60.55 8.43 60.72 9.15 60.88 8.58 61.05 8.29 61.22 8.29 61.38 9.01 61.55 8.43 61.72 9.15 61.89 9.29 62.05 8.29 62.22 8.29 62.39 8.58 62.56 8.43 62.72 8.43 62.89 8.29 63.06 8.72 63.23 8.29 63.39 8.29 63.56 8.29 63.73 8.29 63.89 8.29 64.06 8.29 64.23 8.15 64.4 8.29 64.56 8.72 64.73 8.43 64.9 8.43 65.07 8.58 65.23 9.29 65.4 8.72 65.57 8.72 65.67 10.01 65.84 8.58 66.01 8.86 66.17 19.62 66.34 9.87 66.51 10.01 66.68 8.29 66.84 8 67.01 8 67.18 9.01 67.35 8.43 67.51 21.92 67.68 78.72 67.85 78.72 68.01 78.72 68.18 7.86 68.35 7.86 68.52 7.86 68.68 7.86 68.85 8.29 69.02 8.29 69.19 8.43 69.35 8.43 69.52 8.29 69.69 8.15 69.86 8.43 70.02 8.29 70.19 8.15 70.36 8.15 70.52 8.29 70.69 8.29 70.86 8.29 71.03 8.29 71.19 8.29 71.36 8.29 71.53 8.29 71.7 8.29 71.86 8.29 72.03 8.15 72.2 8.29 72.37 8.29 72.53 8.29 72.7 8.29 72.87 8.15 73.03 8.86 73.2 8.43 73.31 8.86 73.47 8.72 73.64 8.15 73.81 8.58 73.98 8.43 74.14 8.15 74.31 8.15 74.48 8.29 74.65 62.51 74.81 9.44 74.98 8.29 75.15 8.72 75.31 8.29 75.48 8.29 75.65 8.43 75.82 8.29 75.98 8.15 76.15 8.29 76.32 8.58 76.49 8.29 76.65 8.29 76.82 8.29 76.99 8.29 77.15 8.29 77.32 8.29 77.49 8.29 77.66 8.29 77.82 8.29 77.99 8.29 78.16 8.29 78.33 8.29 78.49 8.29 78.66 8.29 78.83 8.29 79 8.29 79.16 8.15 79.33 8.29 79.5 8.72 79.66 8.29 79.83 8.29 80 8.29 80.17 8.72 80.33 8.29 80.5 8.29 80.67 8.29 80.84 8.29 80.94 9.73 81.11 11.3 81.28 8.72 81.44 9.29 81.61 8.15 81.78 9.73 81.94 9.29 82.11 8.15 82.28 8.72 82.45 8.15 82.61 14.6 82.78 8.29 82.95 8.43 83.12 8.58 83.28 8.29 83.45 8.29 83.62 8.15 83.79 8.15 83.95 8.43 84.12 8.29 84.29 8.15 84.45 8.29 84.62 8.29 84.79 8.15 84.96 8.29 85.12 8.29 85.29 8.29 85.46 8.29 85.63 8.15 85.79 8.15 85.96 8.15 86.13 8.15 86.3 8.29 86.46 8.15 86.63 8.15 86.8 8.29 86.96 8.15 87.13 8.15 87.3 8.29 87.47 8.58 87.63 8.29 87.8 8.29 87.97 8.43 88.14 8.86 88.3 8.72 88.47 13.88 88.6 8.29 88.76 8.29 88.93 8.29 89.1 8.58 89.26 13.31 89.43 8.43 89.6 8.29 89.77 8.29 89.93 8.72 90.1 15.46 90.27 8.15 90.44 8.43 90.6 8.43 90.77 8.43 90.94 8.43 91.11 8.29 91.27 8.29 91.44 8.29 91.61 8.29 91.77 8.29 91.94 8.29 92.11 8.29 92.28 8.29 92.44 8.29 92.61 8.29 92.78 8.15 92.95 8.29 93.11 8.43 93.28 8.15 93.45 8.15 93.62 8.15 93.78 8.15 93.95 8.29 94.12 8.29 94.28 8.29 94.45 8.29 94.62 8.29 94.79 8.15 94.95 8.29 95.12 8.15 95.29 8.29 95.46 8.43 95.62 8.29 95.79 8.86 95.96 8.86 96.13 8.43 96.23 9.01 96.4 8.29 96.56 8.15 96.73 8.29 96.9 8.29 97.07 8.29 97.23 8.29 97.4 8.58 97.57 8.58 97.74 8.29 97.9 8.43 98.07 8.72 98.24 8.58 98.41 8.43 98.57 8.72 98.74 8.29 98.91 8.29 99.07 8.43 99.24 8.15 99.41 8.15 99.58 8.29 99.74 8.15 99.91 8.43 100.08 8.86 100.25 8.43 100.41 8.43 100.58 8.15 100.75 8.15 100.91 8.29 101.08 8.15 101.25 8.43 101.42 8.43 101.58 8.43 101.75 8.29 101.92 8.29 102.09 8.15 102.25 8.29 102.42 8.29 102.59 8.29 102.76 8.43 102.92 8.72 103.09 8.29 103.26 7.72 103.42 7.57 103.59 7.57 103.76 7.29"/>
      </g>
    </g>
  </g>
</g>
  <g class="guide ylabels" font-size="2.82" font-family="'PT Sans Caption','Helvetica Neue','Helvetica',sans-serif" fill="#6C606B" id="img-ed89aa8b-11">
    <text x="16.83" y="78.72" text-anchor="end" dy="0.35em">0</text>
    <text x="16.83" y="64.37" text-anchor="end" dy="0.35em">100</text>
    <text x="16.83" y="50.03" text-anchor="end" dy="0.35em">200</text>
    <text x="16.83" y="35.69" text-anchor="end" dy="0.35em">300</text>
    <text x="16.83" y="21.34" text-anchor="end" dy="0.35em">400</text>
    <text x="16.83" y="7" text-anchor="end" dy="0.35em">500</text>
  </g>
  <g font-size="3.88" font-family="'PT Sans','Helvetica Neue','Helvetica',sans-serif" fill="#564A55" stroke="#000000" stroke-opacity="0.000" id="img-ed89aa8b-12">
    <text x="8.81" y="42.86" text-anchor="end" dy="0.35em">y</text>
  </g>
</g>
<defs>
  <clipPath id="img-ed89aa8b-4">
  <path d="M17.83,5 L 136.42 5 136.42 80.72 17.83 80.72" />
</clipPath>
</defs>
</svg>
