<?xml version="1.0" encoding="UTF-8"?>
<svg xmlns="http://www.w3.org/2000/svg"
     xmlns:xlink="http://www.w3.org/1999/xlink"
     xmlns:gadfly="http://www.gadflyjl.org/ns"
     version="1.2"
     width="141.42mm" height="100mm" viewBox="0 0 141.42 100"
     stroke="none"
     fill="#000000"
     stroke-width="0.3"
     font-size="3.88"
>
<g class="plotroot xscalable yscalable" id="img-fe2a2ee9-1">
  <g font-size="3.88" font-family="'PT Sans','Helvetica Neue','Helvetica',sans-serif" fill="#564A55" stroke="#000000" stroke-opacity="0.000" id="img-fe2a2ee9-2">
    <text x="66.8" y="88.39" text-anchor="middle" dy="0.6em">x</text>
  </g>
  <g class="guide xlabels" font-size="2.82" font-family="'PT Sans Caption','Helvetica Neue','Helvetica',sans-serif" fill="#6C606B" id="img-fe2a2ee9-3">
    <text x="18.15" y="81.72" text-anchor="middle" dy="0.6em">2000</text>
    <text x="50.6" y="81.72" text-anchor="middle" dy="0.6em">2005</text>
    <text x="83.03" y="81.72" text-anchor="middle" dy="0.6em">2010</text>
    <text x="115.45" y="81.72" text-anchor="middle" dy="0.6em">2015</text>
  </g>
  <g class="guide colorkey" id="img-fe2a2ee9-4">
    <g fill="#4C404B" font-size="2.82" font-family="'PT Sans','Helvetica Neue','Helvetica',sans-serif" id="img-fe2a2ee9-5">
      <text x="121.27" y="41.04" dy="0.35em" id="img-fe2a2ee9-6" class="color_Emission">Emission</text>
      <text x="121.27" y="44.67" dy="0.35em" id="img-fe2a2ee9-7" class="color_SoilMoisture">SoilMoisture</text>
      <text x="121.27" y="48.3" dy="0.35em" id="img-fe2a2ee9-8" class="color_t2m">t2m</text>
    </g>
    <g stroke="#000000" stroke-opacity="0.000" id="img-fe2a2ee9-9">
      <rect x="118.45" y="40.14" width="1.81" height="1.81" id="img-fe2a2ee9-10" class="color_Emission" fill="#00BFFF"/>
      <rect x="118.45" y="43.76" width="1.81" height="1.81" id="img-fe2a2ee9-11" class="color_SoilMoisture" fill="#D4CA3A"/>
      <rect x="118.45" y="47.39" width="1.81" height="1.81" id="img-fe2a2ee9-12" class="color_t2m" fill="#FF6DAE"/>
    </g>
    <g fill="#362A35" font-size="3.88" font-family="'PT Sans','Helvetica Neue','Helvetica',sans-serif" stroke="#000000" stroke-opacity="0.000" id="img-fe2a2ee9-13">
      <text x="118.45" y="37.22" id="img-fe2a2ee9-14">Color</text>
    </g>
  </g>
<g clip-path="url(#img-fe2a2ee9-15)">
  <g id="img-fe2a2ee9-16">
    <g pointer-events="visible" opacity="1" fill="#000000" fill-opacity="0.000" stroke="#000000" stroke-opacity="0.000" class="guide background" id="img-fe2a2ee9-17">
      <rect x="16.15" y="5" width="101.3" height="75.72" id="img-fe2a2ee9-18"/>
    </g>
    <g class="guide ygridlines xfixed" stroke-dasharray="0.5,0.5" stroke-width="0.2" stroke="#D0D0E0" id="img-fe2a2ee9-19">
      <path fill="none" d="M16.15,78.72 L 117.45 78.72" id="img-fe2a2ee9-20"/>
      <path fill="none" d="M16.15,60.79 L 117.45 60.79" id="img-fe2a2ee9-21"/>
      <path fill="none" d="M16.15,42.86 L 117.45 42.86" id="img-fe2a2ee9-22"/>
      <path fill="none" d="M16.15,24.93 L 117.45 24.93" id="img-fe2a2ee9-23"/>
      <path fill="none" d="M16.15,7 L 117.45 7" id="img-fe2a2ee9-24"/>
    </g>
    <g class="guide xgridlines yfixed" stroke-dasharray="0.5,0.5" stroke-width="0.2" stroke="#D0D0E0" id="img-fe2a2ee9-25">
      <path fill="none" d="M18.15,5 L 18.15 80.72" id="img-fe2a2ee9-26"/>
      <path fill="none" d="M50.6,5 L 50.6 80.72" id="img-fe2a2ee9-27"/>
      <path fill="none" d="M83.03,5 L 83.03 80.72" id="img-fe2a2ee9-28"/>
      <path fill="none" d="M115.45,5 L 115.45 80.72" id="img-fe2a2ee9-29"/>
    </g>
    <g class="plotpanel" id="img-fe2a2ee9-30">
      <g stroke-width="0.3" fill="#000000" fill-opacity="0.000" class="geometry color_t2m" stroke-dasharray="none" stroke="#FF6DAE" id="img-fe2a2ee9-31">
        <path fill="none" d="M18.15,52.38 L 18.29 50.82 18.44 50.01 18.58 50.34 18.72 51.26 18.86 49.37 19 49.89 19.15 50.8 19.29 52.7 19.43 55.68 19.57 55.32 19.72 52.04 19.86 49.29 20 47.16 20.14 45.9 20.28 44.58 20.43 42.38 20.57 38.79 20.71 37.37 20.85 34.36 20.99 33.34 21.14 30.79 21.28 27.22 21.42 24.29 21.56 22.18 21.7 21.07 21.85 19.11 21.99 16.8 22.13 16.22 22.27 17.78 22.41 18.02 22.56 18.87 22.7 20.62 22.84 23.37 22.98 27.02 23.13 30.17 23.27 33.35 23.41 37.04 23.55 40.4 23.69 45.02 23.84 45.11 23.98 44.73 24.12 44.39 24.26 51.04 24.4 50.96 24.55 50.4 24.65 49.42 24.79 50.44 24.94 47.4 25.08 49.86 25.22 48.15 25.36 46.01 25.5 46.45 25.65 48.72 25.79 43.93 25.93 51.85 26.07 57.7 26.22 49.64 26.36 47.12 26.5 44.03 26.64 44.62 26.78 49.32 26.93 43.85 27.07 39.58 27.21 37.52 27.35 32.16 27.49 29.28 27.64 29.16 27.78 24.52 27.92 22.25 28.06 18.91 28.2 19.29 28.35 16.94 28.49 15.59 28.63 12.09 28.77 17.88 28.91 19.19 29.06 21.36 29.2 20.82 29.34 26.93 29.48 28.24 29.62 33.62 29.77 33.5 29.91 43.18 30.05 47.79 30.19 50.01 30.34 40.9 30.48 43.93 30.62 46.52 30.76 59.23 30.9 56.18 31.05 46.07 31.13 47.89 31.28 48.56 31.42 53.2 31.56 50.6 31.7 54.49 31.84 57.68 31.99 55.41 32.13 50.58 32.27 50.63 32.41 46.65 32.56 49.31 32.7 51.68 32.84 51.31 32.98 46.37 33.12 43.24 33.27 41.1 33.41 40.69 33.55 36.83 33.69 36.22 33.83 33.99 33.98 35.71 34.12 29.88 34.26 27.83 34.4 25.2 34.54 23.51 34.69 20 34.83 19.08 34.97 17.41 35.11 15.33 35.25 19.04 35.4 17.68 35.54 19.18 35.68 24.15 35.82 21.85 35.96 23.08 36.11 25.9 36.25 26.46 36.39 30.77 36.53 30.46 36.68 35.36 36.82 39.61 36.96 38.49 37.1 39.53 37.24 49.9 37.39 50.32 37.53 49.08 37.62 54.12 37.76 44.65 37.9 43.74 38.04 46.61 38.18 42.99 38.33 45.77 38.47 44.55 38.61 43.14 38.75 50.12 38.9 62.15 39.04 50.89 39.18 45.76 39.32 47.53 39.46 44.46 39.61 42.48 39.75 39.82 39.89 41.67 40.03 35.57 40.17 35.8 40.32 33.07 40.46 31.49 40.6 30.49 40.74 27.17 40.88 23.49 41.03 21.86 41.17 19.28 41.31 18.03 41.45 13.33 41.59 16.79 41.74 17.46 41.88 17.42 42.02 16.32 42.16 19.96 42.3 21.15 42.45 22.88 42.59 30.29 42.73 37.31 42.87 33.15 43.02 30.24 43.16 41.04 43.3 39.87 43.44 48.91 43.58 47.73 43.73 48.47 43.87 52.73 44.01 44.68 44.1 50.71 44.24 57.67 44.38 50.41 44.52 47.01 44.67 48.11 44.81 48.01 44.95 49.58 45.09 47.42 45.24 51.32 45.38 53.95 45.52 50.05 45.66 60.49 45.8 46.66 45.95 44.93 46.09 43.75 46.23 42.11 46.37 40.32 46.51 36.21 46.66 35.52 46.8 33.62 46.94 34.05 47.08 30.11 47.22 26.34 47.37 22.19 47.51 19.22 47.65 15.92 47.79 16.06 47.93 12.74 48.08 11.83 48.22 11.73 48.36 14.32 48.5 14.75 48.64 15.51 48.79 20.67 48.93 23.53 49.07 26.49 49.21 28.36 49.36 33.26 49.5 42.97 49.64 40.05 49.78 39.77 49.92 38.5 50.07 45.87 50.21 45.88 50.35 46.65 50.49 46.38 50.6 44.52 50.74 43.82 50.88 43.64 51.02 43.95 51.17 48.43 51.31 47.08 51.45 44.94 51.59 47.09 51.73 43.63 51.88 44.38 52.02 49.43 52.16 57.45 52.3 49.19 52.45 42.63 52.59 40.09 52.73 39.2 52.87 36.04 53.01 35.81 53.16 34.71 53.3 30.74 53.44 27.39 53.58 26.89 53.72 22.68 53.87 19.73 54.01 17.59 54.15 17.85 54.29 13.85 54.43 12.4 54.58 11.24 54.72 13.22 54.86 15.97 55 15.68 55.14 18.17 55.29 20.51 55.43 28.1 55.57 30.37 55.71 31.92 55.86 40.74 56 37.98 56.14 50.62 56.28 52.9 56.42 47.8 56.57 39.52 56.71 44.78 56.85 44.87 56.99 46.42 57.08 48.12 57.22 50.61 57.36 56.19 57.51 66.33 57.65 57.46 57.79 46.62 57.93 48.23 58.07 54.79 58.22 50.47 58.36 50.06 58.5 52.4 58.64 46.47 58.79 47.49 58.93 52.45 59.07 52.23 59.21 46.01 59.35 43.5 59.5 39.8 59.64 39.38 59.78 33.09 59.92 33.51 60.06 30.8 60.21 27.33 60.35 25.03 60.49 23.96 60.63 23.39 60.77 21.49 60.92 21.35 61.06 20.05 61.2 19.06 61.34 18.72 61.48 20.62 61.63 22.1 61.77 25.95 61.91 24.96 62.05 27.6 62.2 31.39 62.34 37.6 62.48 43.84 62.62 51.57 62.76 52.51 62.91 43.7 63.05 45.57 63.19 54 63.33 57.87 63.47 54.79 63.56 61.01 63.7 49.68 63.85 54.86 63.99 44.96 64.13 46.94 64.27 48.21 64.41 53.27 64.56 57.01 64.7 74.32 64.84 63.02 64.98 62.19 65.13 50.58 65.27 49.85 65.41 49.19 65.55 47.76 65.69 45.23 65.84 44.13 65.98 40.26 66.12 40.62 66.26 36.44 66.4 34.69 66.55 30.13 66.69 26.66 66.83 22.01 66.97 23.61 67.11 20.41 67.26 19.13 67.4 15.6 67.54 14.75 67.68 16 67.82 15.7 67.97 16.49 68.11 18.64 68.25 22.52 68.39 27.81 68.54 33.85 68.68 40.02 68.82 35.08 68.96 39.53 69.1 46.49 69.25 45.48 69.39 39.41 69.53 44.16 69.67 52.84 69.81 53.06 69.96 50.77 70.04 64.97 70.19 65.39 70.33 47.93 70.47 50.06 70.61 52.63 70.75 53.63 70.9 55.58 71.04 51.87 71.18 51.71 71.32 57.83 71.47 70.68 71.61 48.99 71.75 51.65 71.89 48.21 72.03 50.67 72.18 51.62 72.32 45.63 72.46 42.07 72.6 39.07 72.74 37.89 72.89 37.15 73.03 32.75 73.17 29.35 73.31 28.15 73.45 23.31 73.6 24.03 73.74 20.2 73.88 16.42 74.02 17.59 74.16 20.31 74.31 21.85 74.45 23.17 74.59 25.1 74.73 25.17 74.88 31.36 75.02 31.67 75.16 37.72 75.3 40.43 75.44 43.95 75.59 45.85 75.73 45.61 75.87 51.03 76.01 43.03 76.15 46.39 76.3 45.91 76.44 65.86 76.54 58.1 76.69 48.09 76.83 48.04 76.97 55.28 77.11 56.65 77.25 50.84 77.4 50.53 77.54 48.9 77.68 49.62 77.82 71.05 77.97 57.41 78.11 52.58 78.25 52.17 78.39 49.86 78.53 43.65 78.68 43.21 78.82 43.47 78.96 38.34 79.1 35.4 79.24 35.11 79.39 34.32 79.53 32.7 79.67 28.42 79.81 23.98 79.95 21.35 80.1 23.56 80.24 22.82 80.38 21.86 80.52 21.24 80.66 22.25 80.81 21.34 80.95 21.6 81.09 21.94 81.23 25.93 81.37 26.21 81.52 27.01 81.66 32.45 81.8 40.06 81.94 42.81 82.09 46.64 82.23 53.78 82.37 50.8 82.51 42.85 82.65 54.41 82.8 44.37 82.94 45.5 83.03 44.99 83.17 49.3 83.31 54.69 83.45 48.74 83.59 56.71 83.74 49.89 83.88 50.34 84.02 58.54 84.16 61.29 84.31 55.87 84.45 53.12 84.59 56.8 84.73 49.89 84.87 49.47 85.02 50.55 85.16 48.22 85.3 44.5 85.44 43.43 85.58 39.48 85.73 37.51 85.87 35.78 86.01 35.01 86.15 31.92 86.29 30.9 86.44 28.44 86.58 27.01 86.72 23.51 86.86 21.34 87 21.32 87.15 20.89 87.29 18.04 87.43 19.5 87.57 19.81 87.71 23.04 87.86 34.04 88 34.88 88.14 34.39 88.28 36.15 88.43 44.41 88.57 42.55 88.71 40.68 88.85 44.7 88.99 49.15 89.14 54.54 89.28 57.6 89.42 54.42" id="img-fe2a2ee9-32"/>
      </g>
      <g stroke-width="0.3" fill="#000000" fill-opacity="0.000" class="geometry color_SoilMoisture" stroke-dasharray="none" stroke="#D4CA3A" id="img-fe2a2ee9-33">
        <path fill="none" d="M18.15,59.6 L 18.29 59.9 18.44 59.86 18.58 60.05 18.72 60.02 18.86 60.2 19 60.16 19.15 60.06 19.29 60.19 19.43 59.99 19.57 59.91 19.72 59.37 19.86 59.47 20 60.07 20.14 60.79 20.28 60.03 20.43 60.3 20.57 60.36 20.71 60.14 20.85 60.52 20.99 60.31 21.14 60.33 21.28 60.28 21.42 60.1 21.56 60.42 21.7 60.22 21.85 60.2 21.99 60.15 22.13 60.34 22.27 59.99 22.41 60.14 22.56 60.18 22.7 59.37 22.84 60.2 22.98 60.37 23.13 60.4 23.27 60.18 23.41 59.89 23.55 59.8 23.69 59.94 23.84 59.79 23.98 59.85 24.12 59.84 24.26 59.97 24.4 60.05 24.55 60.08 24.65 59.6 24.79 59.9 24.94 59.86 25.08 60.05 25.22 60.02 25.36 60.2 25.5 60.16 25.65 60.06 25.79 60.19 25.93 59.99 26.07 59.91 26.22 60.11 26.36 60.79 26.5 59.94 26.64 60.25 26.78 60.1 26.93 60.33 27.07 60.16 27.21 60.11 27.35 60.32 27.49 60.34 27.64 60.27 27.78 60.17 27.92 59.84 28.06 60.12 28.2 60.02 28.35 59.93 28.49 59.77 28.63 59.99 28.77 60.04 28.91 60.11 29.06 60.06 29.2 59.94 29.34 60.28 29.48 59.94 29.62 60.79 29.77 60.09 29.91 60.04 30.05 60.05 30.19 60.79 30.34 59.79 30.48 59.85 30.62 59.84 30.76 59.97 30.9 60.05 31.05 60.08 31.13 59.6 31.28 59.9 31.42 59.86 31.56 60.05 31.7 60.02 31.84 60.2 31.99 60.16 32.13 60.06 32.27 60.19 32.41 59.99 32.56 59.91 32.7 60.22 32.84 60.19 32.98 59.91 33.12 60.09 33.27 60.25 33.41 60.42 33.55 59.96 33.69 59.75 33.83 60.17 33.98 60.23 34.12 60.46 34.26 60.41 34.4 59.98 34.54 60.33 34.69 60.33 34.83 60.43 34.97 60.38 35.11 60.26 35.25 60.49 35.4 60.46 35.54 60.43 35.68 60.46 35.82 60.28 35.96 60.31 36.11 59.98 36.25 59.89 36.39 59.94 36.53 60.01 36.68 59.96 36.82 59.86 36.96 59.99 37.1 60.35 37.24 60.5 37.39 60.53 37.53 60.37 37.62 59.6 37.76 59.99 37.9 60.03 38.04 59.83 38.18 60.37 38.33 60.34 38.47 60.32 38.61 60.06 38.75 60.41 38.9 60.02 39.04 60.15 39.18 60.07 39.32 60.2 39.46 60.13 39.61 60.23 39.75 60.27 39.89 60.24 40.03 60.23 40.17 60.42 40.32 60.55 40.46 60.62 40.6 60.31 40.74 60.2 40.88 59.94 41.03 60.17 41.17 60.18 41.31 60.41 41.45 60.47 41.59 60.46 41.74 60.26 41.88 60.19 42.02 60.28 42.16 60.39 42.3 60.37 42.45 59.98 42.59 60.03 42.73 60.08 42.87 60.09 43.02 59.83 43.16 59.93 43.3 59.77 43.44 59.86 43.58 59.84 43.73 60.05 43.87 59.97 44.01 60.05 44.1 59.53 44.24 60.07 44.38 59.72 44.52 59.74 44.67 59.7 44.81 60.05 44.95 60.15 45.09 60.06 45.24 60.42 45.38 59.79 45.52 59.81 45.66 59.95 45.8 60.03 45.95 60.06 46.09 60.18 46.23 60.2 46.37 60.16 46.51 60.18 46.66 60.24 46.8 60.4 46.94 60.35 47.08 60.25 47.22 60.22 47.37 60.17 47.51 59.99 47.65 59.42 47.79 59.97 47.93 60.31 48.08 60.31 48.22 60.3 48.36 60.32 48.5 60.37 48.64 60.36 48.79 60.26 48.93 60.16 49.07 60.12 49.21 60.03 49.36 60.06 49.5 60.02 49.64 59.77 49.78 59.95 49.92 60.04 50.07 59.74 50.21 59.82 50.35 60.09 50.49 59.78 50.6 59.45 50.74 59.74 50.88 60.06 51.02 60.14 51.17 60.42 51.31 60.47 51.45 60.37 51.59 60.06 51.73 60.73 51.88 60.29 52.02 59.67 52.16 60 52.3 59.99 52.45 60.17 52.59 60.2 52.73 60.18 52.87 60.01 53.01 59.95 53.16 60.31 53.3 60.21 53.44 60.23 53.58 60.17 53.72 59.79 53.87 59.65 54.01 60.41 54.15 60.28 54.29 60.14 54.43 60.16 54.58 60.33 54.72 60.41 54.86 60.51 55 60.39 55.14 60.05 55.29 60.25 55.43 60 55.57 60.2 55.71 60.2 55.86 60.06 56 60.09 56.14 59.71 56.28 59.98 56.42 60.05 56.57 59.7 56.71 59.67 56.85 60.12 56.99 60.34 57.08 60.13 57.22 60.2 57.36 60.2 57.51 60.34 57.65 60.57 57.79 60.79 57.93 60.38 58.07 60.06 58.22 60.19 58.36 60.38 58.5 60.29 58.64 59.84 58.79 60.02 58.93 60.07 59.07 60.17 59.21 60.38 59.35 60.29 59.5 60.11 59.64 60.1 59.78 60.15 59.92 60.31 60.06 60.09 60.21 59.95 60.35 59.94 60.49 60.19 60.63 60.43 60.77 60.44 60.92 60.18 61.06 60.12 61.2 60.17 61.34 60.07 61.48 60.16 61.63 60.25 61.77 60.33 61.91 60.07 62.05 60.16 62.2 60.06 62.34 60.12 62.48 60.06 62.62 59.78 62.76 59.85 62.91 59.75 63.05 59.88 63.19 59.8 63.33 59.75 63.47 59.85 63.56 59.31 63.7 59.5 63.85 59.72 63.99 59.91 64.13 59.89 64.27 60.2 64.41 60.16 64.56 59.96 64.7 59.75 64.84 59.62 64.98 59.76 65.13 60.34 65.27 59.96 65.41 60.09 65.55 60.35 65.69 60.41 65.84 60.1 65.98 60.36 66.12 60.44 66.26 60.33 66.4 60.42 66.55 60.17 66.69 60.2 66.83 60.09 66.97 60.2 67.11 60.37 67.26 60.16 67.4 60.15 67.54 60.26 67.68 60.24 67.82 60.17 67.97 60.2 68.11 60.23 68.25 60.19 68.39 60.24 68.54 60.1 68.68 60.13 68.82 60.36 68.96 60.04 69.1 59.74 69.25 59.79 69.39 59.67 69.53 59.78 69.67 59.97 69.81 60.05 69.96 60.08 70.04 59.6 70.19 59.9 70.33 59.45 70.47 60.59 70.61 59.89 70.75 59.71 70.9 59.72 71.04 59.89 71.18 59.78 71.32 59.88 71.47 60.05 71.61 59.81 71.75 60 71.89 59.87 72.03 60.09 72.18 60.08 72.32 60.16 72.46 60.21 72.6 60.47 72.74 60.48 72.89 60.46 73.03 60.39 73.17 60.26 73.31 60.2 73.45 60.25 73.6 60.36 73.74 60.44 73.88 60.27 74.02 60.09 74.16 60.25 74.31 60.23 74.45 60.12 74.59 60.26 74.73 60.08 74.88 60.16 75.02 60.26 75.16 60.15 75.3 60.12 75.44 60.19 75.59 60.22 75.73 59.68 75.87 59.81 76.01 59.63 76.15 59.62 76.3 59.87 76.44 60.08 76.54 59.6 76.69 59.9 76.83 59.83 76.97 59.8 77.11 59.31 77.25 59.87 77.4 60.16 77.54 60.06 77.68 59.8 77.82 59.8 77.97 59.81 78.11 59.92 78.25 60.13 78.39 60.23 78.53 60.4 78.68 60.4 78.82 60.45 78.96 60.34 79.1 60.31 79.24 60.25 79.39 60.33 79.53 60.27 79.67 60.09 79.81 60.31 79.95 60.2 80.1 60.08 80.24 60.4 80.38 60.4 80.52 60.16 80.66 60.28 80.81 60.11 80.95 60.1 81.09 60.31 81.23 60.32 81.37 60.13 81.52 60.14 81.66 59.99 81.8 59.89 81.94 60.17 82.09 59.78 82.23 59.77 82.37 59.99 82.51 59.81 82.65 60.32 82.8 60.05 82.94 60.08 83.03 59.6 83.17 59.9 83.31 59.86 83.45 60.05 83.59 60.02 83.74 60.2 83.88 60.04 84.02 60.34 84.16 60.4 84.31 60.19 84.45 59.71 84.59 59.61 84.73 59.78 84.87 60.14 85.02 59.98 85.16 59.98 85.3 60 85.44 59.92 85.58 60.16 85.73 60.15 85.87 60.1 86.01 60.29 86.15 60.35 86.29 60.43 86.44 60.4 86.58 60.37 86.72 60.13 86.86 60.15 87 60.3 87.15 60.16 87.29 60.01 87.43 59.97 87.57 59.97 87.71 60.15 87.86 59.99 88 60.22 88.14 60.16 88.28 59.96 88.43 59.79 88.57 59.72 88.71 59.46 88.85 59.46 88.99 59.84 89.14 59.97 89.28 60.05 89.42 60.08" id="img-fe2a2ee9-34"/>
      </g>
      <g stroke-width="0.3" fill="#000000" fill-opacity="0.000" class="geometry color_Emission" stroke-dasharray="none" stroke="#00BFFF" id="img-fe2a2ee9-35">
        <path fill="none" d="M18.15,60.79 L 18.29 60.79 18.44 60.79 18.58 60.79 18.72 60.79 18.86 60.79 19 60.79 19.15 60.79 19.29 60.79 19.43 60.79 19.57 60.79 19.72 60.74 19.86 60.66 20 60.66 20.14 60.66 20.28 60.79 20.43 60.79 20.57 60.79 20.71 60.79 20.85 60.79 20.99 60.79 21.14 60.79 21.28 60.79 21.42 60.79 21.56 60.79 21.7 60.79 21.85 60.79 21.99 60.79 22.13 60.79 22.27 60.79 22.41 60.79 22.56 60.79 22.7 60.79 22.84 60.79 22.98 60.79 23.13 60.79 23.27 60.79 23.41 60.79 23.55 60.79 23.69 60.79 23.84 60.79 23.98 60.79 24.12 60.79 24.26 60.79 24.4 60.79 24.55 60.79 24.65 60.79 24.79 60.79 24.94 60.79 25.08 60.79 25.22 60.79 25.36 60.79 25.5 60.79 25.65 60.79 25.79 60.79 25.93 60.79 26.07 60.79 26.22 60.79 26.36 60.79 26.5 60.79 26.64 60.79 26.78 60.79 26.93 60.79 27.07 60.79 27.21 60.79 27.35 60.79 27.49 60.79 27.64 60.79 27.78 60.79 27.92 60.79 28.06 60.79 28.2 60.79 28.35 60.79 28.49 60.79 28.63 60.79 28.77 60.79 28.91 60.79 29.06 60.79 29.2 60.79 29.34 60.79 29.48 60.79 29.62 60.79 29.77 60.79 29.91 60.79 30.05 60.79 30.19 60.79 30.34 60.79 30.48 60.79 30.62 60.79 30.76 60.79 30.9 60.79 31.05 60.79 31.13 60.79 31.28 60.79 31.42 60.79 31.56 60.79 31.7 60.79 31.84 60.79 31.99 60.79 32.13 60.79 32.27 60.79 32.41 60.79 32.56 60.79 32.7 60.79 32.84 60.79 32.98 60.79 33.12 60.79 33.27 60.79 33.41 60.79 33.55 60.79 33.69 60.79 33.83 60.79 33.98 60.79 34.12 60.79 34.26 60.79 34.4 60.79 34.54 60.79 34.69 60.79 34.83 60.79 34.97 60.79 35.11 60.79 35.25 60.79 35.4 60.79 35.54 60.79 35.68 60.79 35.82 60.79 35.96 60.79 36.11 60.79 36.25 60.79 36.39 60.79 36.53 60.79 36.68 60.79 36.82 60.79 36.96 60.79 37.1 60.79 37.24 60.79 37.39 60.79 37.53 60.79 37.62 60.79 37.76 60.79 37.9 60.79 38.04 60.79 38.18 60.79 38.33 60.79 38.47 60.79 38.61 60.79 38.75 60.79 38.9 60.79 39.04 60.79 39.18 60.79 39.32 60.79 39.46 60.79 39.61 60.79 39.75 60.79 39.89 60.79 40.03 60.79 40.17 60.79 40.32 60.79 40.46 60.79 40.6 60.79 40.74 60.79 40.88 60.79 41.03 60.79 41.17 60.79 41.31 60.79 41.45 60.79 41.59 60.79 41.74 60.79 41.88 60.79 42.02 60.79 42.16 60.79 42.3 60.79 42.45 60.79 42.59 60.79 42.73 60.79 42.87 60.79 43.02 60.79 43.16 60.79 43.3 60.79 43.44 60.79 43.58 60.79 43.73 60.79 43.87 60.79 44.01 60.79 44.1 60.79 44.24 60.79 44.38 60.79 44.52 60.79 44.67 60.79 44.81 60.79 44.95 60.79 45.09 60.79 45.24 60.79 45.38 60.79 45.52 60.79 45.66 60.79 45.8 60.79 45.95 60.79 46.09 60.79 46.23 60.79 46.37 60.79 46.51 60.79 46.66 60.79 46.8 60.79 46.94 60.79 47.08 60.79 47.22 60.79 47.37 60.79 47.51 60.79 47.65 60.79 47.79 60.79 47.93 60.79 48.08 60.79 48.22 60.79 48.36 60.79 48.5 60.79 48.64 60.79 48.79 60.79 48.93 60.79 49.07 60.79 49.21 60.79 49.36 60.79 49.5 60.79 49.64 60.79 49.78 60.79 49.92 60.79 50.07 60.79 50.21 60.79 50.35 60.79 50.49 60.79 50.6 60.79 50.74 60.79 50.88 60.79 51.02 60.79 51.17 60.79 51.31 60.79 51.45 60.79 51.59 60.79 51.73 60.79 51.88 60.79 52.02 60.79 52.16 60.79 52.3 60.79 52.45 60.79 52.59 60.79 52.73 60.79 52.87 60.79 53.01 60.79 53.16 60.79 53.3 60.79 53.44 60.79 53.58 60.79 53.72 60.79 53.87 60.79 54.01 60.79 54.15 60.79 54.29 60.79 54.43 60.79 54.58 60.79 54.72 60.79 54.86 60.79 55 60.79 55.14 60.79 55.29 60.79 55.43 60.79 55.57 60.79 55.71 60.79 55.86 60.79 56 60.79 56.14 60.79 56.28 60.79 56.42 60.79 56.57 60.79 56.71 60.79 56.85 60.79 56.99 60.79 57.08 60.79 57.22 60.79 57.36 60.79 57.51 60.79 57.65 60.79 57.79 60.79 57.93 60.79 58.07 60.79 58.22 60.79 58.36 60.79 58.5 60.79 58.64 60.3 58.79 59.48 58.93 59.48 59.07 59.48 59.21 60.79 59.35 60.79 59.5 60.79 59.64 60.79 59.78 60.79 59.92 60.79 60.06 60.79 60.21 60.79 60.35 60.79 60.49 60.79 60.63 60.79 60.77 60.79 60.92 60.79 61.06 60.79 61.2 60.79 61.34 60.79 61.48 60.79 61.63 60.79 61.77 60.79 61.91 60.79 62.05 60.79 62.2 60.79 62.34 60.79 62.48 60.79 62.62 60.79 62.76 60.79 62.91 60.79 63.05 60.79 63.19 60.79 63.33 60.79 63.47 60.79 63.56 60.79 63.7 60.79 63.85 60.79 63.99 60.79 64.13 60.79 64.27 60.79 64.41 60.79 64.56 60.79 64.7 60.79 64.84 60.79 64.98 60.79 65.13 60.79 65.27 60.79 65.41 60.79 65.55 60.79 65.69 60.79 65.84 60.79 65.98 60.79 66.12 60.79 66.26 60.79 66.4 60.79 66.55 60.79 66.69 60.79 66.83 60.79 66.97 60.79 67.11 60.79 67.26 60.79 67.4 60.79 67.54 60.79 67.68 60.79 67.82 60.79 67.97 60.79 68.11 60.79 68.25 60.79 68.39 60.79 68.54 60.79 68.68 60.79 68.82 60.79 68.96 60.79 69.1 60.79 69.25 60.79 69.39 60.79 69.53 60.79 69.67 60.79 69.81 60.79 69.96 60.79 70.04 60.79 70.19 60.79 70.33 60.79 70.47 60.79 70.61 60.79 70.75 60.79 70.9 60.79 71.04 60.79 71.18 60.79 71.32 60.79 71.47 60.79 71.61 60.79 71.75 60.79 71.89 60.79 72.03 60.79 72.18 60.79 72.32 60.79 72.46 60.79 72.6 60.79 72.74 60.79 72.89 60.79 73.03 60.79 73.17 60.79 73.31 60.79 73.45 60.79 73.6 60.79 73.74 60.79 73.88 60.79 74.02 60.79 74.16 60.79 74.31 60.79 74.45 60.79 74.59 60.79 74.73 60.79 74.88 60.79 75.02 60.79 75.16 60.79 75.3 60.79 75.44 60.79 75.59 60.79 75.73 60.79 75.87 60.79 76.01 60.79 76.15 60.79 76.3 60.79 76.44 60.79 76.54 60.79 76.69 60.79 76.83 60.79 76.97 60.79 77.11 60.79 77.25 60.79 77.4 60.79 77.54 60.79 77.68 60.79 77.82 60.79 77.97 60.79 78.11 60.79 78.25 60.79 78.39 60.79 78.53 60.79 78.68 60.79 78.82 60.79 78.96 60.79 79.1 60.79 79.24 60.79 79.39 60.79 79.53 60.79 79.67 60.79 79.81 60.79 79.95 60.79 80.1 60.79 80.24 60.79 80.38 60.79 80.52 60.79 80.66 60.79 80.81 60.79 80.95 60.79 81.09 60.79 81.23 60.79 81.37 60.79 81.52 60.79 81.66 60.79 81.8 60.79 81.94 60.79 82.09 60.79 82.23 60.79 82.37 60.79 82.51 60.79 82.65 60.79 82.8 60.79 82.94 60.79 83.03 60.79 83.17 60.79 83.31 60.79 83.45 60.79 83.59 60.79 83.74 60.79 83.88 60.79 84.02 60.79 84.16 60.79 84.31 60.79 84.45 60.79 84.59 60.79 84.73 60.79 84.87 60.79 85.02 60.79 85.16 60.79 85.3 60.79 85.44 60.79 85.58 60.79 85.73 60.79 85.87 60.79 86.01 60.79 86.15 60.79 86.29 60.79 86.44 60.79 86.58 60.79 86.72 60.79 86.86 60.79 87 60.79 87.15 60.79 87.29 60.79 87.43 60.79 87.57 60.79 87.71 60.79 87.86 60.79 88 60.79 88.14 60.79 88.28 60.79 88.43 60.79 88.57 60.79 88.71 60.79 88.85 60.79 88.99 60.79 89.14 60.79 89.28 60.79 89.42 60.79" id="img-fe2a2ee9-36"/>
      </g>
    </g>
  </g>
</g>
  <g class="guide ylabels" font-size="2.82" font-family="'PT Sans Caption','Helvetica Neue','Helvetica',sans-serif" fill="#6C606B" id="img-fe2a2ee9-37">
    <text x="15.15" y="78.72" text-anchor="end" dy="0.35em" id="img-fe2a2ee9-38">-5</text>
    <text x="15.15" y="60.79" text-anchor="end" dy="0.35em" id="img-fe2a2ee9-39">0</text>
    <text x="15.15" y="42.86" text-anchor="end" dy="0.35em" id="img-fe2a2ee9-40">5</text>
    <text x="15.15" y="24.93" text-anchor="end" dy="0.35em" id="img-fe2a2ee9-41">10</text>
    <text x="15.15" y="7" text-anchor="end" dy="0.35em" id="img-fe2a2ee9-42">15</text>
  </g>
  <g font-size="3.88" font-family="'PT Sans','Helvetica Neue','Helvetica',sans-serif" fill="#564A55" stroke="#000000" stroke-opacity="0.000" id="img-fe2a2ee9-43">
    <text x="8.81" y="42.86" text-anchor="end" dy="0.35em" id="img-fe2a2ee9-44">y</text>
  </g>
</g>
<defs>
  <clipPath id="img-fe2a2ee9-15">
  <path d="M16.15,5 L 117.45 5 117.45 80.72 16.15 80.72" />
</clipPath>
</defs>
</svg>
