<?xml version="1.0" encoding="UTF-8"?>
<svg xmlns="http://www.w3.org/2000/svg"
     xmlns:xlink="http://www.w3.org/1999/xlink"
     xmlns:gadfly="http://www.gadflyjl.org/ns"
     version="1.2"
     width="141.42mm" height="100mm" viewBox="0 0 141.42 100"
     stroke="none"
     fill="#000000"
     stroke-width="0.3"
     font-size="3.88"
>
<g class="plotroot xscalable yscalable" id="img-bb088db7-1">
  <g font-size="3.88" font-family="'PT Sans','Helvetica Neue','Helvetica',sans-serif" fill="#564A55" stroke="#000000" stroke-opacity="0.000" id="img-bb088db7-2">
    <text x="67.36" y="88.39" text-anchor="middle" dy="0.6em">x</text>
  </g>
  <g class="guide xlabels" font-size="2.82" font-family="'PT Sans Caption','Helvetica Neue','Helvetica',sans-serif" fill="#6C606B" id="img-bb088db7-3">
    <text x="19.27" y="81.72" text-anchor="middle" dy="0.6em">2000</text>
    <text x="51.34" y="81.72" text-anchor="middle" dy="0.6em">2005</text>
    <text x="83.4" y="81.72" text-anchor="middle" dy="0.6em">2010</text>
    <text x="115.45" y="81.72" text-anchor="middle" dy="0.6em">2015</text>
  </g>
  <g class="guide colorkey" id="img-bb088db7-4">
    <g fill="#4C404B" font-size="2.82" font-family="'PT Sans','Helvetica Neue','Helvetica',sans-serif" id="img-bb088db7-5">
      <text x="121.27" y="41.04" dy="0.35em" id="img-bb088db7-6" class="color_Emission">Emission</text>
      <text x="121.27" y="44.67" dy="0.35em" id="img-bb088db7-7" class="color_SoilMoisture">SoilMoisture</text>
      <text x="121.27" y="48.3" dy="0.35em" id="img-bb088db7-8" class="color_t2m">t2m</text>
    </g>
    <g stroke="#000000" stroke-opacity="0.000" id="img-bb088db7-9">
      <rect x="118.45" y="40.14" width="1.81" height="1.81" id="img-bb088db7-10" class="color_Emission" fill="#00BFFF"/>
      <rect x="118.45" y="43.76" width="1.81" height="1.81" id="img-bb088db7-11" class="color_SoilMoisture" fill="#D4CA3A"/>
      <rect x="118.45" y="47.39" width="1.81" height="1.81" id="img-bb088db7-12" class="color_t2m" fill="#FF6DAE"/>
    </g>
    <g fill="#362A35" font-size="3.88" font-family="'PT Sans','Helvetica Neue','Helvetica',sans-serif" stroke="#000000" stroke-opacity="0.000" id="img-bb088db7-13">
      <text x="118.45" y="37.22" id="img-bb088db7-14">Color</text>
    </g>
  </g>
<g clip-path="url(#img-bb088db7-15)">
  <g id="img-bb088db7-16">
    <g pointer-events="visible" opacity="1" fill="#000000" fill-opacity="0.000" stroke="#000000" stroke-opacity="0.000" class="guide background" id="img-bb088db7-17">
      <rect x="17.27" y="5" width="100.19" height="75.72" id="img-bb088db7-18"/>
    </g>
    <g class="guide ygridlines xfixed" stroke-dasharray="0.5,0.5" stroke-width="0.2" stroke="#D0D0E0" id="img-bb088db7-19">
      <path fill="none" d="M17.27,78.72 L 117.45 78.72" id="img-bb088db7-20"/>
      <path fill="none" d="M17.27,64.37 L 117.45 64.37" id="img-bb088db7-21"/>
      <path fill="none" d="M17.27,50.03 L 117.45 50.03" id="img-bb088db7-22"/>
      <path fill="none" d="M17.27,35.69 L 117.45 35.69" id="img-bb088db7-23"/>
      <path fill="none" d="M17.27,21.34 L 117.45 21.34" id="img-bb088db7-24"/>
      <path fill="none" d="M17.27,7 L 117.45 7" id="img-bb088db7-25"/>
    </g>
    <g class="guide xgridlines yfixed" stroke-dasharray="0.5,0.5" stroke-width="0.2" stroke="#D0D0E0" id="img-bb088db7-26">
      <path fill="none" d="M19.27,5 L 19.27 80.72" id="img-bb088db7-27"/>
      <path fill="none" d="M51.34,5 L 51.34 80.72" id="img-bb088db7-28"/>
      <path fill="none" d="M83.4,5 L 83.4 80.72" id="img-bb088db7-29"/>
      <path fill="none" d="M115.45,5 L 115.45 80.72" id="img-bb088db7-30"/>
    </g>
    <g class="plotpanel" id="img-bb088db7-31">
      <g stroke-width="0.3" fill="#000000" fill-opacity="0.000" class="geometry color_t2m" stroke-dasharray="none" stroke="#FF6DAE" id="img-bb088db7-32">
        <path fill="none" d="M19.27,50.03 L 19.41 50.03 19.55 50.03 19.69 50.03 19.83 50.03 19.97 50.03 20.11 50.03 20.25 50.03 20.39 50.03 20.53 50.03 20.67 50.03 20.81 50.03 20.95 50.03 21.09 50.03 21.23 50.03 21.37 50.03 21.51 50.03 21.65 50.03 21.79 50.03 21.93 50.03 22.07 50.03 22.22 50.03 22.36 50.03 22.5 50.03 22.64 50.03 22.78 50.03 22.92 50.03 23.06 50.03 23.2 50.03 23.34 50.03 23.48 50.03 23.62 50.03 23.76 50.03 23.9 50.03 24.04 50.03 24.18 50.03 24.32 50.03 24.46 50.03 24.6 50.03 24.74 50.03 24.88 50.03 25.02 50.03 25.16 50.03 25.31 50.03 25.45 50.03 25.59 50.03 25.69 48.03 25.83 49.77 25.97 48.28 26.11 49.71 26.25 47.94 26.39 47.77 26.53 47.72 26.67 48.63 26.81 44.13 26.96 47.45 27.1 51.63 27.24 48.41 27.38 48.57 27.52 47.93 27.66 49.17 27.8 53.21 27.94 51.02 28.08 50.56 28.22 50.13 28.36 48.55 28.5 47.3 28.64 48.93 28.78 48.22 28.92 48.66 29.06 47.83 29.2 48.83 29.34 48.57 29.48 49.22 29.62 47.25 29.76 50.1 29.9 50.81 30.05 51.7 30.19 50.16 30.33 52.42 30.47 50.85 30.61 52.35 30.75 50.13 30.89 54.16 31.03 54.99 31.17 53.38 31.31 47.2 31.45 49.49 31.59 51.46 31.73 55.53 31.87 53.54 32.01 47.12 32.1 47.01 32.24 48.51 32.38 52.17 32.52 50.2 32.66 52.2 32.8 55.61 32.94 53.74 33.08 49.88 33.22 48.63 33.36 43.96 33.5 45.99 33.64 49.79 33.78 51.39 33.93 49.5 34.07 48.24 34.21 47.69 34.35 48.89 34.49 48.71 34.63 49.25 34.77 49.78 34.91 51.62 35.05 49.42 35.19 50.44 35.33 50.64 35.47 50.92 35.61 49.31 35.75 50.01 35.89 50.44 36.03 49.43 36.17 50.87 36.31 49.8 36.45 50.24 36.59 52.4 36.73 49.01 36.87 47.38 37.01 47.16 37.16 45.4 37.3 45.82 37.44 43.35 37.58 43.54 37.72 46.33 37.86 45.84 38 46.76 38.14 49.26 38.28 49.6 38.42 49.14 38.51 51.2 38.65 45.88 38.79 45.81 38.93 47.52 39.07 44.47 39.21 47.6 39.35 46.44 39.49 44.88 39.63 48.3 39.77 54.37 39.91 47.05 40.05 45.81 40.19 48.85 40.33 48.21 40.47 47.73 40.61 46.83 40.75 49.55 40.89 47.87 41.04 48.98 41.18 49.16 41.32 48.79 41.46 49.82 41.6 49.99 41.74 49.49 41.88 49.82 42.02 48.83 42.16 49.3 42.3 47.7 42.44 50.41 42.58 49.81 42.72 49.62 42.86 48.31 43 49.59 43.14 48.54 43.28 47.25 43.42 50.11 43.56 52.69 43.7 47.41 43.84 43.2 43.98 47.36 44.13 46.51 44.27 52.84 44.41 52.27 44.55 48.3 44.69 51.22 44.83 46.19 44.92 48.91 45.06 54.63 45.2 50.3 45.34 47.79 45.48 47.92 45.62 49.11 45.76 49.82 45.9 47.76 46.04 49.1 46.18 48.86 46.32 46.49 46.46 55.7 46.6 48.26 46.74 48.53 46.88 48.59 47.02 48.37 47.16 48.64 47.3 48.3 47.44 48.78 47.58 49.53 47.72 50.51 47.86 49.57 48 49.44 48.15 48.62 48.29 48.05 48.43 46.57 48.57 47.98 48.71 47.3 48.85 47.07 48.99 45.96 49.13 47.54 49.27 47.27 49.41 46.6 49.55 48.22 49.69 47.68 49.83 47.56 49.97 46.67 50.11 47.49 50.25 51.76 50.39 46.69 50.53 46.44 50.67 45.85 50.81 51.02 50.95 46.56 51.09 47.14 51.24 47.33 51.34 44.74 51.48 45.33 51.62 45.75 51.76 45.74 51.9 48.13 52.04 48.49 52.18 46.71 52.32 47.53 52.46 43.93 52.6 42.43 52.74 46.07 52.89 53.66 53.03 49.97 53.17 46.98 53.31 46.12 53.45 46.41 53.59 45.77 53.73 48.03 53.87 48.24 54.01 47.59 54.15 46.03 54.29 47.41 54.43 46.98 54.57 46.96 54.71 46.95 54.85 47.86 54.99 46.5 55.13 47.07 55.27 46.68 55.41 46.97 55.55 48.65 55.69 47.89 55.83 48.38 55.98 48.1 56.12 50.76 56.26 50.17 56.4 49.06 56.54 52.51 56.68 48.41 56.82 53.79 56.96 55.26 57.1 52.1 57.24 46.76 57.38 45.82 57.52 45.94 57.66 47.36 57.75 47.17 57.89 49.89 58.03 54.18 58.17 60.77 58.31 54.2 58.45 48.18 58.59 48.91 58.73 52.7 58.87 48.53 59.01 46.26 59.15 48.07 59.29 46.28 59.43 48.83 59.57 53.58 59.71 54.28 59.86 50.99 60 50.78 60.14 50.71 60.28 51.38 60.42 49.17 60.56 50.15 60.7 50.04 60.84 50.1 60.98 50.53 61.12 51.23 61.26 51.59 61.4 51.63 61.54 53.08 61.68 52.6 61.82 50.88 61.96 50.5 62.1 51.21 62.24 51.02 62.38 51.76 62.52 48.64 62.66 48.3 62.8 48.71 62.94 50.4 63.09 52.34 63.23 54.43 63.37 55 63.51 49.34 63.65 50.82 63.79 52.01 63.93 54.68 64.07 52.98 64.16 55.82 64.3 49.26 64.44 53.29 64.58 46.41 64.72 47.13 64.86 49.25 65 52.3 65.14 54.2 65.28 64.55 65.42 54.96 65.56 54.65 65.7 49.04 65.84 50.41 65.98 51.4 66.12 51.28 66.26 50.46 66.4 51.2 66.54 51.02 66.68 52.21 66.82 51.43 66.97 50.94 67.11 49.59 67.25 49.65 67.39 48.49 67.53 50.99 67.67 49.58 67.81 50.04 67.95 49.22 68.09 49.04 68.23 48.83 68.37 48.47 68.51 48.43 68.65 48.7 68.79 49.45 68.93 50.56 69.07 52.5 69.21 54.51 69.35 48.71 69.49 49.45 69.63 51.02 69.77 50.28 69.91 46.45 70.06 49.87 70.2 51.24 70.34 51.44 70.48 50.28 70.56 58.49 70.7 59.81 70.85 48.63 70.99 49.84 71.13 50.95 71.27 52.89 71.41 53.85 71.55 50.75 71.69 49.36 71.83 51.47 71.97 60.35 72.11 47.98 72.25 51.62 72.39 50.74 72.53 53.23 72.67 54.75 72.81 52.21 72.95 52.23 73.09 51.17 73.23 52.4 73.37 52.59 73.51 51.34 73.65 51.46 73.79 52.62 73.93 50.79 74.08 52.02 74.22 50.76 74.36 49.77 74.5 50.95 74.64 51.73 74.78 52.6 74.92 52.92 75.06 53.04 75.2 51.24 75.34 52.95 75.48 51.04 75.62 52.97 75.76 52.3 75.9 52.42 76.04 50.59 76.18 50.36 76.32 54.26 76.46 49.11 76.6 46.9 76.74 46.64 76.88 60.42 76.99 53.87 77.13 48.2 77.27 48.7 77.41 53.35 77.55 53.65 77.69 51.02 77.83 50.46 77.97 48.75 78.11 47.96 78.25 60.36 78.39 51.43 78.53 50.39 78.68 51.97 78.82 51.85 78.96 48.51 79.1 49.11 79.24 50.76 79.38 49.73 79.52 48.71 79.66 50.53 79.8 50.69 79.94 51.31 80.08 50.83 80.22 49.82 80.36 49.47 80.5 51.7 80.64 52.52 80.78 53.42 80.92 53.4 81.06 53.03 81.2 52.26 81.34 51.87 81.48 50.91 81.62 51.75 81.76 49.48 81.91 47.91 82.05 49.42 82.19 52.06 82.33 51.65 82.47 51.12 82.61 55.85 82.75 54.11 82.89 48.99 83.03 52.29 83.17 45.6 83.31 46.74 83.4 45.06 83.54 49.01 83.68 53.17 83.82 48.95 83.96 53.69 84.1 50.38 84.24 50.33 84.38 55.22 84.52 55.8 84.66 50.16 84.8 48.55 84.94 53.22 85.08 50.43 85.22 51.58 85.36 53.15 85.5 52.47 85.64 51.45 85.79 53.15 85.93 51.44 86.07 52.14 86.21 51.67 86.35 52.86 86.49 53.18 86.63 54.47 86.77 54.24 86.91 54.01 87.05 52.98 87.19 53.08 87.33 53.45 87.47 52.11 87.61 50.04 87.75 50.46 87.89 49.48 88.03 49.8 88.17 54.74 88.31 53.2 88.45 50.73 88.59 49.43 88.73 52.72 88.88 48.37 89.02 47.05 89.16 50.01 89.3 53.22 89.44 52.38 89.58 54.5 89.72 52.73" id="img-bb088db7-33"/>
      </g>
      <g stroke-width="0.3" fill="#000000" fill-opacity="0.000" class="geometry color_SoilMoisture" stroke-dasharray="none" stroke="#D4CA3A" id="img-bb088db7-34">
        <path fill="none" d="M19.27,50.03 L 19.41 50.03 19.55 50.03 19.69 50.03 19.83 50.03 19.97 50.03 20.11 50.03 20.25 50.03 20.39 50.03 20.53 50.03 20.67 50.03 20.81 42.37 20.95 42.14 21.09 50.12 21.23 57.38 21.37 47.59 21.51 51.03 21.65 52.68 21.79 48.83 21.93 52.74 22.07 49.67 22.22 50.82 22.36 51.42 22.5 50.58 22.64 52.41 22.78 50.53 22.92 49.43 23.06 49.14 23.2 51.37 23.34 46.68 23.48 49.12 23.62 49.62 23.76 39.44 23.9 49.39 24.04 53.4 24.18 52.57 24.32 51.28 24.46 47.83 24.6 47.23 24.74 50.03 24.88 50.03 25.02 50.03 25.16 50.03 25.31 50.03 25.45 50.03 25.59 50.03 25.69 50.03 25.83 50.03 25.97 50.03 26.11 50.03 26.25 50.03 26.39 50.03 26.53 50.03 26.67 50.03 26.81 50.03 26.96 50.03 27.1 50.03 27.24 52.47 27.38 60.04 27.52 48.4 27.66 50.03 27.8 48.56 27.94 51.5 28.08 50.03 28.22 48.47 28.36 50.03 28.5 50.03 28.64 50.03 28.78 50.03 28.92 47.07 29.06 48.29 29.2 47.72 29.34 45.84 29.48 44 29.62 46.6 29.76 47.31 29.9 48.72 30.05 48.03 30.19 47.25 30.33 50.44 30.47 47.54 30.61 57.77 30.75 50.03 30.89 49.9 31.03 50.68 31.17 61.57 31.31 50.03 31.45 50.03 31.59 50.03 31.73 50.03 31.87 50.03 32.01 50.03 32.1 50.03 32.24 50.03 32.38 50.03 32.52 50.03 32.66 50.03 32.8 50.03 32.94 50.03 33.08 50.03 33.22 50.03 33.36 50.03 33.5 50.03 33.64 54 33.78 51.94 33.93 47.99 34.07 47.9 34.21 50.67 34.35 52.77 34.49 47.31 34.63 43.63 34.77 48.02 34.91 48.54 35.05 52.53 35.19 53.22 35.33 48.91 35.47 51.26 35.61 52.04 35.75 52.58 35.89 52.27 36.03 50.34 36.17 53.55 36.31 53.37 36.45 53.1 36.59 54.37 36.73 50.56 36.87 52.53 37.01 46.83 37.16 47.42 37.3 48.6 37.44 50.07 37.58 50.26 37.72 50.99 37.86 51.94 38 57 38.14 57.23 38.28 56.46 38.42 54.04 38.51 50.03 38.65 51.32 38.79 52.39 38.93 47.05 39.07 54.74 39.21 51.92 39.35 52.14 39.49 50.03 39.63 53.14 39.77 50.34 39.91 53.3 40.05 51.91 40.19 52.02 40.33 50.94 40.47 49.76 40.61 50.94 40.75 50.3 40.89 51.01 41.04 52.71 41.18 53.2 41.32 53.95 41.46 50.56 41.6 50.33 41.74 48.44 41.88 49.04 42.02 49.98 42.16 52.36 42.3 53.47 42.44 53.02 42.58 50.42 42.72 49.72 42.86 51.01 43 53.32 43.14 51.71 43.28 48.13 43.42 47.42 43.56 49.88 43.7 50.65 43.84 47.65 43.98 49.9 44.13 49.77 44.27 50.22 44.41 50 44.55 51.15 44.69 48.96 44.83 49.62 44.92 48.98 45.06 52.38 45.2 48.12 45.34 45.71 45.48 45.69 45.62 47.91 45.76 49.86 45.9 50.03 46.04 53.23 46.18 47.2 46.32 48.72 46.46 50.29 46.6 49.75 46.74 50.04 46.88 49.08 47.02 49.9 47.16 49.11 47.3 50.31 47.44 50.21 47.58 51.07 47.72 50.18 47.86 49.74 48 50.69 48.15 51.5 48.29 46.56 48.43 39.52 48.57 46.33 48.71 51.28 48.85 51.07 48.99 50.85 49.13 51.51 49.27 52.31 49.41 52.97 49.55 50.17 49.69 50.56 49.83 48.7 49.97 49.27 50.11 50.17 50.25 50.25 50.39 47.69 50.53 52.19 50.67 52.67 50.81 48.61 50.95 48.03 51.09 50.5 51.24 46.03 51.34 47.96 51.48 47.84 51.62 52.77 51.76 51.29 51.9 55.48 52.04 53.69 52.18 52.86 52.32 50.03 52.46 57.4 52.6 54.03 52.74 46.87 52.89 51.02 53.03 49.18 53.17 51.54 53.31 49.43 53.45 49.66 53.59 47.07 53.73 47.11 53.87 51.27 54.01 48.47 54.15 48.59 54.29 48.63 54.43 44.76 54.57 44.41 54.71 52.34 54.85 51.29 54.99 48.63 55.13 49.21 55.27 51.25 55.41 52.45 55.55 54.04 55.69 52.5 55.83 48.81 55.98 50.12 56.12 48.31 56.26 49.77 56.4 51.59 56.54 50.16 56.68 51.14 56.82 46.96 56.96 52.62 57.1 52.81 57.24 48.14 57.38 45.94 57.52 50.92 57.66 53.61 57.75 57.16 57.89 54.07 58.03 54.63 58.17 54 58.31 57.49 58.45 57.97 58.59 52.99 58.73 50.03 58.87 50.03 59.01 55.28 59.15 55.24 59.29 48.72 59.43 49.6 59.57 50.11 59.71 49.03 59.86 52.34 60 50.96 60.14 49.38 60.28 48.38 60.42 47.63 60.56 49.66 60.7 47.52 60.84 47.02 60.98 48.43 61.12 49.24 61.26 53.38 61.4 52.72 61.54 49.59 61.68 48.39 61.82 49.15 61.96 48.15 62.1 49.43 62.24 51.45 62.38 51.12 62.52 49.27 62.66 49.22 62.8 49.63 62.94 50.96 63.09 50.82 63.23 47.81 63.37 50.82 63.51 48.71 63.65 50.57 63.79 47.77 63.93 45.84 64.07 46.85 64.16 46.02 64.3 44.54 64.44 48.1 64.58 48.1 64.72 48.31 64.86 50.03 65 50.03 65.14 48.57 65.28 44.12 65.42 44.93 65.56 48.08 65.7 55.55 65.84 48.84 65.98 50.4 66.12 51.37 66.26 52.78 66.4 48.35 66.54 52.73 66.68 53.02 66.82 50.16 66.97 51.24 67.11 48.6 67.25 50.42 67.39 50.52 67.53 49.48 67.67 52.51 67.81 48.98 67.95 49.05 68.09 50.35 68.23 50.11 68.37 49.53 68.51 49.9 68.65 51.14 68.79 49.21 68.93 51.62 69.07 48.37 69.21 50.59 69.35 54.33 69.49 50.48 69.63 47.36 69.77 50.03 69.91 47.59 70.06 49.18 70.2 50.08 70.34 50.03 70.48 50.03 70.56 50.03 70.7 50.03 70.85 44.48 70.99 57.42 71.13 48.2 71.27 43.24 71.41 43.96 71.55 47.64 71.69 44.54 71.83 48.42 71.97 51.97 72.11 48.38 72.25 49.29 72.39 47.44 72.53 47.85 72.67 48.26 72.81 49.13 72.95 50.66 73.09 53.34 73.23 52.21 73.37 51.74 73.51 51.61 73.65 51.24 73.79 51.94 73.93 50.17 74.08 52.32 74.22 52.78 74.36 50.79 74.5 48.07 74.64 50.19 74.78 50.31 74.92 48.89 75.06 51.64 75.2 47.74 75.34 50.47 75.48 50.59 75.62 50.86 75.76 51.02 75.9 52.59 76.04 53.89 76.18 48.47 76.32 49.47 76.46 47.13 76.6 45.27 76.74 47.48 76.88 50.03 76.99 50.03 77.13 50.03 77.27 49.71 77.41 46.62 77.55 40.29 77.69 45.44 77.83 50.03 77.97 50.03 78.11 44.83 78.25 47.37 78.39 48.7 78.53 49.89 78.68 51.16 78.82 52.28 78.96 52.1 79.1 52.72 79.24 53.14 79.38 52.42 79.52 51.27 79.66 49.06 79.8 49.89 79.94 49.98 80.08 48.82 80.22 53.48 80.36 49.41 80.5 48.56 80.64 52.16 80.78 52.47 80.92 49.04 81.06 50.66 81.2 48.62 81.34 48.65 81.48 52.31 81.62 51.09 81.76 50.19 81.91 48.99 82.05 48.7 82.19 47.86 82.33 52.28 82.47 47.83 82.61 49.8 82.75 52.02 82.89 49.6 83.03 54.76 83.17 50.03 83.31 50.03 83.4 50.03 83.54 50.03 83.68 50.03 83.82 50.03 83.96 50.03 84.1 50.03 84.24 48.37 84.38 53.87 84.52 52.94 84.66 52.67 84.8 47.35 84.94 45.7 85.08 46.37 85.22 51.07 85.36 46.4 85.5 46.89 85.64 46.97 85.79 46.68 85.93 49.19 86.07 47.73 86.21 46.83 86.35 50.29 86.49 52.36 86.63 55.04 86.77 52.12 86.91 52.48 87.05 48.5 87.19 49.07 87.33 50.83 87.47 48.95 87.61 47.24 87.75 46.87 87.89 47.62 88.03 48.76 88.17 48.29 88.31 50.08 88.45 51.08 88.59 48.86 88.73 47.14 88.88 47.02 89.02 45.57 89.16 44.82 89.3 50.03 89.44 50.03 89.58 50.03 89.72 50.03" id="img-bb088db7-35"/>
      </g>
      <g stroke-width="0.3" fill="#000000" fill-opacity="0.000" class="geometry color_Emission" stroke-dasharray="none" stroke="#00BFFF" id="img-bb088db7-36">
        <path fill="none" d="M19.27,50.03 L 19.41 50.03 19.55 50.03 19.69 50.03 19.83 50.03 19.97 50.03 20.11 50.03 20.25 50.03 20.39 50.03 20.53 50.03 20.67 50.03 20.81 50.03 20.95 50.03 21.09 50.03 21.23 50.03 21.37 50.03 21.51 50.03 21.65 50.03 21.79 50.03 21.93 50.03 22.07 50.03 22.22 50.03 22.36 50.03 22.5 50.03 22.64 50.03 22.78 50.03 22.92 50.03 23.06 50.03 23.2 50.03 23.34 50.03 23.48 50.03 23.62 50.03 23.76 50.03 23.9 50.03 24.04 50.03 24.18 50.03 24.32 50.03 24.46 50.03 24.6 50.03 24.74 50.03 24.88 50.03 25.02 50.03 25.16 50.03 25.31 50.03 25.45 50.03 25.59 50.03 25.69 50.03 25.83 50.03 25.97 50.03 26.11 50.03 26.25 50.03 26.39 50.03 26.53 50.03 26.67 50.03 26.81 50.03 26.96 50.03 27.1 50.03 27.24 51.4 27.38 53.69 27.52 53.69 27.66 53.69 27.8 50.03 27.94 50.03 28.08 50.03 28.22 50.03 28.36 50.03 28.5 50.03 28.64 50.03 28.78 50.03 28.92 50.03 29.06 50.03 29.2 50.03 29.34 50.03 29.48 50.03 29.62 50.03 29.76 50.03 29.9 50.03 30.05 50.03 30.19 50.03 30.33 50.03 30.47 50.03 30.61 50.03 30.75 50.03 30.89 50.03 31.03 50.03 31.17 50.03 31.31 50.03 31.45 50.03 31.59 50.03 31.73 50.03 31.87 50.03 32.01 50.03 32.1 50.03 32.24 50.03 32.38 50.03 32.52 50.03 32.66 50.03 32.8 50.03 32.94 50.03 33.08 50.03 33.22 50.03 33.36 50.03 33.5 50.03 33.64 51.4 33.78 53.69 33.93 53.69 34.07 53.69 34.21 50.03 34.35 50.03 34.49 50.03 34.63 50.03 34.77 50.03 34.91 50.03 35.05 50.03 35.19 50.03 35.33 50.03 35.47 50.03 35.61 50.03 35.75 50.03 35.89 50.03 36.03 50.03 36.17 50.03 36.31 50.03 36.45 50.03 36.59 50.03 36.73 50.03 36.87 50.03 37.01 50.03 37.16 50.03 37.3 50.03 37.44 50.03 37.58 50.03 37.72 50.03 37.86 50.03 38 50.03 38.14 50.03 38.28 50.03 38.42 50.03 38.51 50.03 38.65 50.03 38.79 50.03 38.93 50.03 39.07 50.03 39.21 50.03 39.35 50.03 39.49 50.03 39.63 50.03 39.77 50.03 39.91 50.03 40.05 51.4 40.19 53.69 40.33 53.69 40.47 53.69 40.61 50.03 40.75 50.03 40.89 50.03 41.04 50.03 41.18 50.03 41.32 50.03 41.46 50.03 41.6 50.03 41.74 50.03 41.88 50.03 42.02 50.03 42.16 50.03 42.3 50.03 42.44 50.03 42.58 50.03 42.72 50.03 42.86 50.03 43 50.03 43.14 50.03 43.28 50.03 43.42 50.03 43.56 50.03 43.7 50.03 43.84 50.03 43.98 50.03 44.13 50.03 44.27 50.03 44.41 50.03 44.55 50.03 44.69 50.03 44.83 50.03 44.92 50.03 45.06 50.03 45.2 50.03 45.34 50.03 45.48 50.03 45.62 50.03 45.76 50.03 45.9 50.03 46.04 50.03 46.18 50.03 46.32 50.03 46.46 51.4 46.6 53.69 46.74 53.69 46.88 53.69 47.02 50.03 47.16 50.03 47.3 50.03 47.44 50.03 47.58 50.03 47.72 50.03 47.86 50.03 48 50.03 48.15 50.03 48.29 50.03 48.43 50.03 48.57 50.03 48.71 50.03 48.85 50.03 48.99 50.03 49.13 50.03 49.27 50.03 49.41 50.03 49.55 50.03 49.69 50.03 49.83 50.03 49.97 50.03 50.11 50.03 50.25 50.03 50.39 50.03 50.53 50.03 50.67 50.03 50.81 50.03 50.95 50.03 51.09 50.03 51.24 50.03 51.34 50.03 51.48 50.03 51.62 50.03 51.76 50.03 51.9 50.03 52.04 50.03 52.18 50.03 52.32 50.03 52.46 50.03 52.6 50.03 52.74 50.03 52.89 51.4 53.03 53.69 53.17 53.69 53.31 53.69 53.45 50.03 53.59 50.03 53.73 50.03 53.87 50.03 54.01 50.03 54.15 50.03 54.29 50.03 54.43 50.03 54.57 50.03 54.71 50.03 54.85 50.03 54.99 50.03 55.13 50.03 55.27 50.03 55.41 50.03 55.55 50.03 55.69 50.03 55.83 50.03 55.98 50.03 56.12 50.03 56.26 50.03 56.4 50.03 56.54 50.03 56.68 50.03 56.82 50.03 56.96 50.03 57.1 50.03 57.24 50.03 57.38 50.03 57.52 50.03 57.66 50.03 57.75 50.03 57.89 50.03 58.03 50.03 58.17 50.03 58.31 50.03 58.45 50.03 58.59 50.03 58.73 50.03 58.87 50.03 59.01 50.03 59.15 50.03 59.29 37.68 59.43 17.09 59.57 17.09 59.71 17.09 59.86 50.03 60 50.03 60.14 50.03 60.28 50.03 60.42 50.03 60.56 50.03 60.7 50.03 60.84 50.03 60.98 50.03 61.12 50.03 61.26 50.03 61.4 50.03 61.54 50.03 61.68 50.03 61.82 50.03 61.96 50.03 62.1 50.03 62.24 50.03 62.38 50.03 62.52 50.03 62.66 50.03 62.8 50.03 62.94 50.03 63.09 50.03 63.23 50.03 63.37 50.03 63.51 50.03 63.65 50.03 63.79 50.03 63.93 50.03 64.07 50.03 64.16 50.03 64.3 50.03 64.44 50.03 64.58 50.03 64.72 50.03 64.86 50.03 65 50.03 65.14 50.03 65.28 50.03 65.42 50.03 65.56 50.03 65.7 51.4 65.84 53.69 65.98 53.69 66.12 53.69 66.26 50.03 66.4 50.03 66.54 50.03 66.68 50.03 66.82 50.03 66.97 50.03 67.11 50.03 67.25 50.03 67.39 50.03 67.53 50.03 67.67 50.03 67.81 50.03 67.95 50.03 68.09 50.03 68.23 50.03 68.37 50.03 68.51 50.03 68.65 50.03 68.79 50.03 68.93 50.03 69.07 50.03 69.21 50.03 69.35 50.03 69.49 50.03 69.63 50.03 69.77 50.03 69.91 50.03 70.06 50.03 70.2 50.03 70.34 50.03 70.48 50.03 70.56 50.03 70.7 50.03 70.85 50.03 70.99 50.03 71.13 50.03 71.27 50.03 71.41 50.03 71.55 50.03 71.69 50.03 71.83 50.03 71.97 50.03 72.11 51.4 72.25 53.69 72.39 53.69 72.53 53.69 72.67 50.03 72.81 50.03 72.95 50.03 73.09 50.03 73.23 50.03 73.37 50.03 73.51 50.03 73.65 50.03 73.79 50.03 73.93 50.03 74.08 50.03 74.22 50.03 74.36 50.03 74.5 50.03 74.64 50.03 74.78 50.03 74.92 50.03 75.06 50.03 75.2 50.03 75.34 50.03 75.48 50.03 75.62 50.03 75.76 50.03 75.9 50.03 76.04 50.03 76.18 50.03 76.32 50.03 76.46 50.03 76.6 50.03 76.74 50.03 76.88 50.03 76.99 50.03 77.13 50.03 77.27 50.03 77.41 50.03 77.55 50.03 77.69 50.03 77.83 50.03 77.97 50.03 78.11 50.03 78.25 50.03 78.39 50.03 78.53 51.4 78.68 53.69 78.82 53.69 78.96 53.69 79.1 50.03 79.24 50.03 79.38 50.03 79.52 50.03 79.66 50.03 79.8 50.03 79.94 50.03 80.08 50.03 80.22 50.03 80.36 50.03 80.5 50.03 80.64 50.03 80.78 50.03 80.92 50.03 81.06 50.03 81.2 50.03 81.34 50.03 81.48 50.03 81.62 50.03 81.76 50.03 81.91 50.03 82.05 50.03 82.19 50.03 82.33 50.03 82.47 50.03 82.61 50.03 82.75 50.03 82.89 50.03 83.03 50.03 83.17 50.03 83.31 50.03 83.4 50.03 83.54 50.03 83.68 50.03 83.82 50.03 83.96 50.03 84.1 50.03 84.24 50.03 84.38 50.03 84.52 50.03 84.66 50.03 84.8 50.03 84.94 51.4 85.08 53.69 85.22 53.69 85.36 53.69 85.5 50.03 85.64 50.03 85.79 50.03 85.93 50.03 86.07 50.03 86.21 50.03 86.35 50.03 86.49 50.03 86.63 50.03 86.77 50.03 86.91 50.03 87.05 50.03 87.19 50.03 87.33 50.03 87.47 50.03 87.61 50.03 87.75 50.03 87.89 50.03 88.03 50.03 88.17 50.03 88.31 50.03 88.45 50.03 88.59 50.03 88.73 50.03 88.88 50.03 89.02 50.03 89.16 50.03 89.3 50.03 89.44 50.03 89.58 50.03 89.72 50.03" id="img-bb088db7-37"/>
      </g>
    </g>
  </g>
</g>
  <g class="guide ylabels" font-size="2.82" font-family="'PT Sans Caption','Helvetica Neue','Helvetica',sans-serif" fill="#6C606B" id="img-bb088db7-38">
    <text x="16.27" y="78.72" text-anchor="end" dy="0.35em" id="img-bb088db7-39">-10</text>
    <text x="16.27" y="64.37" text-anchor="end" dy="0.35em" id="img-bb088db7-40">-5</text>
    <text x="16.27" y="50.03" text-anchor="end" dy="0.35em" id="img-bb088db7-41">0</text>
    <text x="16.27" y="35.69" text-anchor="end" dy="0.35em" id="img-bb088db7-42">5</text>
    <text x="16.27" y="21.34" text-anchor="end" dy="0.35em" id="img-bb088db7-43">10</text>
    <text x="16.27" y="7" text-anchor="end" dy="0.35em" id="img-bb088db7-44">15</text>
  </g>
  <g font-size="3.88" font-family="'PT Sans','Helvetica Neue','Helvetica',sans-serif" fill="#564A55" stroke="#000000" stroke-opacity="0.000" id="img-bb088db7-45">
    <text x="8.81" y="42.86" text-anchor="end" dy="0.35em" id="img-bb088db7-46">y</text>
  </g>
</g>
<defs>
  <clipPath id="img-bb088db7-15">
  <path d="M17.27,5 L 117.45 5 117.45 80.72 17.27 80.72" />
</clipPath>
</defs>
</svg>
