<?xml version="1.0" encoding="UTF-8"?>
<svg xmlns="http://www.w3.org/2000/svg"
     xmlns:xlink="http://www.w3.org/1999/xlink"
     xmlns:gadfly="http://www.gadflyjl.org/ns"
     version="1.2"
     width="141.42mm" height="100mm" viewBox="0 0 141.42 100"
     stroke="none"
     fill="#000000"
     stroke-width="0.3"
     font-size="3.88"
>
<g class="plotroot xscalable yscalable" id="img-f208fa68-1">
  <g font-size="3.88" font-family="'PT Sans','Helvetica Neue','Helvetica',sans-serif" fill="#564A55" stroke="#000000" stroke-opacity="0.000" id="img-f208fa68-2">
    <text x="75.45" y="88.39" text-anchor="middle" dy="0.6em">x</text>
  </g>
  <g class="guide xlabels" font-size="2.82" font-family="'PT Sans Caption','Helvetica Neue','Helvetica',sans-serif" fill="#6C606B" id="img-f208fa68-3">
    <text x="16.48" y="81.72" text-anchor="middle" dy="0.6em">2000</text>
    <text x="55.81" y="81.72" text-anchor="middle" dy="0.6em">2005</text>
    <text x="95.11" y="81.72" text-anchor="middle" dy="0.6em">2010</text>
    <text x="134.42" y="81.72" text-anchor="middle" dy="0.6em">2015</text>
  </g>
<g clip-path="url(#img-f208fa68-4)">
  <g id="img-f208fa68-5">
    <g pointer-events="visible" opacity="1" fill="#000000" fill-opacity="0.000" stroke="#000000" stroke-opacity="0.000" class="guide background" id="img-f208fa68-6">
      <rect x="14.48" y="5" width="121.94" height="75.72"/>
    </g>
    <g class="guide ygridlines xfixed" stroke-dasharray="0.5,0.5" stroke-width="0.2" stroke="#D0D0E0" id="img-f208fa68-7">
      <path fill="none" d="M14.48,78.71 L 136.42 78.71"/>
      <path fill="none" d="M14.48,66.76 L 136.42 66.76"/>
      <path fill="none" d="M14.48,54.81 L 136.42 54.81"/>
      <path fill="none" d="M14.48,42.86 L 136.42 42.86"/>
      <path fill="none" d="M14.48,30.9 L 136.42 30.9"/>
      <path fill="none" d="M14.48,18.95 L 136.42 18.95"/>
      <path fill="none" d="M14.48,7 L 136.42 7"/>
    </g>
    <g class="guide xgridlines yfixed" stroke-dasharray="0.5,0.5" stroke-width="0.2" stroke="#D0D0E0" id="img-f208fa68-8">
      <path fill="none" d="M16.48,5 L 16.48 80.72"/>
      <path fill="none" d="M55.81,5 L 55.81 80.72"/>
      <path fill="none" d="M95.11,5 L 95.11 80.72"/>
      <path fill="none" d="M134.42,5 L 134.42 80.72"/>
    </g>
    <g class="plotpanel" id="img-f208fa68-9">
      <g stroke-width="0.3" fill="#000000" fill-opacity="0.000" class="geometry" stroke-dasharray="none" stroke="#00BFFF" id="img-f208fa68-10">
        <path fill="none" d="M16.48,76.59 L 16.65 77.36 16.82 75.95 17 76.92 17.17 72.5 17.34 74.86 17.51 71.05 17.68 73.65 17.86 71.47 18.03 72.03 18.2 61.04 18.37 68.11 18.55 57.54 18.72 62.83 18.89 51.87 19.06 55.48 19.23 31.2 19.41 40.95 19.58 43.01 19.75 24.98 19.92 48.88 20.1 18.72 20.27 57.39 20.44 60.2 20.61 69.29 20.78 55.75 20.96 62.76 21.13 51.11 21.3 63.54 21.47 44.32 21.65 67.47 21.82 55.35 21.99 68.94 22.16 59.72 22.33 71.54 22.51 68.64 22.68 70.87 22.85 68.19 23.02 73.36 23.2 70.38 23.37 72.51 23.54 77.01 23.71 75.92 23.88 77.62 24.06 75.92 24.23 77.02 24.36 76.88 24.53 77.35 24.7 76.41 24.87 77.15 25.05 73.06 25.22 72.93 25.39 71.3 25.56 75.73 25.74 69.99 25.91 73.64 26.08 66.32 26.25 68.74 26.42 60.51 26.6 70.99 26.77 48.48 26.94 48.9 27.11 55.83 27.29 40.95 27.46 55.67 27.63 60.23 27.8 62.58 27.97 33 28.15 57.49 28.32 40.73 28.49 67.67 28.66 36.91 28.84 60.17 29.01 52.72 29.18 63.97 29.35 49.82 29.52 70.97 29.7 67.97 29.87 72.51 30.04 64.05 30.21 69.73 30.39 53.64 30.56 68.43 30.73 72.18 30.9 71.22 31.07 74.17 31.25 73.83 31.42 77.25 31.59 76.67 31.76 77.85 31.93 77.27 32.11 77.52 32.21 76.86 32.39 77.97 32.56 75.2 32.73 76 32.9 73.74 33.08 75.36 33.25 73.62 33.42 72.91 33.59 59.34 33.76 70.9 33.94 57.33 34.11 64.47 34.28 58.96 34.45 70.58 34.63 60.71 34.8 49.53 34.97 60.68 35.14 38.95 35.31 62.92 35.49 40.69 35.66 59.37 35.83 26.26 36 55.55 36.18 35.12 36.35 65.54 36.52 53.03 36.69 61.93 36.86 59.29 37.04 64.95 37.21 46.92 37.38 65.69 37.55 48.6 37.73 69.27 37.9 64.6 38.07 68.68 38.24 66.06 38.41 73.02 38.59 72.54 38.76 72.69 38.93 75.63 39.1 74.26 39.28 77.5 39.45 74.66 39.62 77.49 39.79 77.27 39.96 77.22 40.07 76.1 40.24 77.53 40.42 75.66 40.59 77.68 40.76 75.47 40.93 75.84 41.11 68.26 41.28 74.34 41.45 67.33 41.62 69.71 41.79 54.28 41.97 69.47 42.14 56.24 42.31 63.77 42.48 56.12 42.66 38.46 42.83 66.4 43 51.21 43.17 60.22 43.34 22.98 43.52 52.09 43.69 29.66 43.86 57.09 44.03 46.78 44.2 55.75 44.38 36.58 44.55 62.21 44.72 36.51 44.89 62.46 45.07 45.14 45.24 66.44 45.41 63.76 45.58 65.57 45.75 58.48 45.93 72.26 46.1 66.96 46.27 64.09 46.44 65.18 46.62 70.32 46.79 74.69 46.96 75.16 47.13 76.77 47.3 75.14 47.48 77.6 47.65 76.98 47.82 77.24 47.93 76.55 48.1 77.71 48.27 76.07 48.45 77.48 48.62 75.52 48.79 77.06 48.96 72.21 49.13 75.43 49.31 72.82 49.48 71.75 49.65 64.59 49.82 66.62 50 59.87 50.17 63.16 50.34 48.78 50.51 68.02 50.68 60.27 50.86 40.46 51.03 39.47 51.2 36.81 51.37 56.53 51.55 41.61 51.72 56.82 51.89 40.99 52.06 61.79 52.23 47.04 52.41 61.1 52.58 40.31 52.75 69.42 52.92 68.34 53.1 68.66 53.27 44.08 53.44 66.87 53.61 69.85 53.78 69 53.96 59.43 54.13 73.14 54.3 68.89 54.47 76.26 54.65 73.8 54.82 75.47 54.99 76.12 55.16 75.99 55.33 76.9 55.51 76.51 55.68 77.59 55.81 75.96 55.98 76.47 56.15 75.1 56.32 76.05 56.5 72.88 56.67 76.52 56.84 72.81 57.01 74.98 57.19 74.6 57.36 70.97 57.53 60.87 57.7 63.3 57.87 60.65 58.05 62.01 58.22 53.99 58.39 57.39 58.56 63.41 58.74 48.2 58.91 54.68 59.08 50.04 59.25 64.47 59.42 14.95 59.6 59.09 59.77 41.27 59.94 56.76 60.11 53.32 60.29 62.57 60.46 53.22 60.63 68.05 60.8 55.06 60.97 61.36 61.15 51.02 61.32 65.66 61.49 55.55 61.66 70.49 61.83 52.39 62.01 59.28 62.18 63.72 62.35 73.21 62.52 75.89 62.7 75.75 62.87 76.89 63.04 76.61 63.21 77.59 63.38 76.73 63.56 76.42 63.66 76.75 63.84 77.09 64.01 75.93 64.18 76.55 64.35 74.23 64.53 75.81 64.7 72.28 64.87 75.73 65.04 72.91 65.21 73.92 65.39 69.51 65.56 70.21 65.73 64.69 65.9 68.21 66.08 61.47 66.25 40 66.42 61.71 66.59 43.1 66.76 68.77 66.94 38.57 67.11 49.46 67.28 28.41 67.45 55.8 67.63 26.11 67.8 48.35 67.97 27.42 68.14 67.28 68.31 63 68.49 66.55 68.66 61.56 68.83 66.59 69 42.64 69.18 63.06 69.35 53.67 69.52 72.05 69.69 56.55 69.86 58.81 70.04 64.81 70.21 70.6 70.38 75.63 70.55 72.15 70.73 75.82 70.9 74.9 71.07 76.58 71.24 75.03 71.41 75.25 71.52 76.21 71.69 76.74 71.87 76.91 72.04 77.73 72.21 75.08 72.38 75.67 72.55 65.45 72.73 74.1 72.9 60.81 73.07 71.75 73.24 58.76 73.42 62.22 73.59 42.54 73.76 55.91 73.93 30.84 74.1 44.3 74.28 62.96 74.45 33.54 74.62 61.11 74.79 40.61 74.97 56.2 75.14 34.69 75.31 66.14 75.48 49.91 75.65 57.4 75.83 41.01 76 62.5 76.17 48.98 76.34 66.56 76.52 48.95 76.69 70.09 76.86 64.67 77.03 64.66 77.2 61.26 77.38 68.28 77.55 55.97 77.72 65.62 77.89 70.59 78.07 70.81 78.24 76.4 78.41 75.33 78.58 77.8 78.75 76.17 78.93 77.05 79.1 73.49 79.27 75.45 79.38 77.06 79.55 77.46 79.72 74.93 79.9 76.78 80.07 69.7 80.24 73.19 80.41 69.34 80.58 74.27 80.76 64.84 80.93 74.47 81.1 73.51 81.27 71.65 81.45 59.79 81.62 67.09 81.79 51.21 81.96 61.7 82.13 31.75 82.31 61.14 82.48 46.01 82.65 32.81 82.82 63.09 83 42.04 83.17 54.32 83.34 35.85 83.51 66.7 83.68 46.09 83.86 59.66 84.03 43.87 84.2 64.47 84.37 49.99 84.55 64.24 84.72 49.2 84.89 69.74 85.06 60.42 85.23 72.55 85.41 64.69 85.58 72.1 85.75 68.36 85.92 74.44 86.09 70.97 86.27 75.21 86.44 77.18 86.61 76.71 86.78 77.91 86.96 76.35 87.13 74.61 87.26 75 87.43 76.37 87.6 76.05 87.77 77.11 87.95 75.34 88.12 76.93 88.29 75.55 88.46 76.31 88.64 75.31 88.81 72.84 88.98 69.47 89.15 64.25 89.32 42.09 89.5 60.94 89.67 39.71 89.84 44.76 90.01 62.88 90.18 29.89 90.36 57.47 90.53 34 90.7 53.06 90.87 43.68 91.05 61.43 91.22 55.24 91.39 65.35 91.56 44.7 91.73 59.46 91.91 39.79 92.08 57.37 92.25 46.67 92.42 62.52 92.6 43.76 92.77 67.64 92.94 53.52 93.11 71.89 93.28 69.29 93.46 70.07 93.63 72.45 93.8 72.84 93.97 76.18 94.15 71.59 94.32 76.22 94.49 76.32 94.66 77.4 94.83 76.9 95.01 77.12 95.11 77.36 95.29 78.03 95.46 77.73 95.63 77.88 95.8 76.21 95.98 77.1 96.15 73.41 96.32 73.96 96.49 68.08 96.66 73.22 96.84 60.98 97.01 67.8 97.18 55.03 97.35 61.8 97.53 39.24 97.7 67.28 97.87 71.74 98.04 52.6 98.21 66.31 98.39 26.73 98.56 53.89 98.73 39.08 98.9 48.41 99.08 24.68 99.25 54.99 99.42 40.78 99.59 65.8 99.76 65.11 99.94 71.12 100.11 52.88 100.28 68.41 100.45 57.7 100.63 68.95 100.8 57.53 100.97 70.99 101.14 47.48 101.31 62.98 101.49 61.25 101.66 71.69 101.83 74.99 102 74.97 102.18 77.21 102.35 77.14 102.52 77.86 102.69 77.18 102.86 76.6"/>
      </g>
    </g>
  </g>
</g>
  <g class="guide ylabels" font-size="2.82" font-family="'PT Sans Caption','Helvetica Neue','Helvetica',sans-serif" fill="#6C606B" id="img-f208fa68-11">
    <text x="13.48" y="78.71" text-anchor="end" dy="0.35em">0</text>
    <text x="13.48" y="66.76" text-anchor="end" dy="0.35em">1</text>
    <text x="13.48" y="54.81" text-anchor="end" dy="0.35em">2</text>
    <text x="13.48" y="42.86" text-anchor="end" dy="0.35em">3</text>
    <text x="13.48" y="30.9" text-anchor="end" dy="0.35em">4</text>
    <text x="13.48" y="18.95" text-anchor="end" dy="0.35em">5</text>
    <text x="13.48" y="7" text-anchor="end" dy="0.35em">6</text>
  </g>
  <g font-size="3.88" font-family="'PT Sans','Helvetica Neue','Helvetica',sans-serif" fill="#564A55" stroke="#000000" stroke-opacity="0.000" id="img-f208fa68-12">
    <text x="8.81" y="42.86" text-anchor="end" dy="0.35em">y</text>
  </g>
</g>
<defs>
  <clipPath id="img-f208fa68-4">
  <path d="M14.48,5 L 136.42 5 136.42 80.72 14.48 80.72" />
</clipPath>
</defs>
</svg>
