<?xml version="1.0" encoding="UTF-8"?>
<svg xmlns="http://www.w3.org/2000/svg"
     xmlns:xlink="http://www.w3.org/1999/xlink"
     xmlns:gadfly="http://www.gadflyjl.org/ns"
     version="1.2"
     width="141.42mm" height="100mm" viewBox="0 0 141.42 100"
     stroke="none"
     fill="#000000"
     stroke-width="0.3"
     font-size="3.88"
>
<g class="plotroot xscalable yscalable" id="img-fd9d60cd-1">
  <g font-size="3.88" font-family="'PT Sans','Helvetica Neue','Helvetica',sans-serif" fill="#564A55" stroke="#000000" stroke-opacity="0.000" id="img-fd9d60cd-2">
    <text x="67.36" y="88.39" text-anchor="middle" dy="0.6em">x</text>
  </g>
  <g class="guide xlabels" font-size="2.82" font-family="'PT Sans Caption','Helvetica Neue','Helvetica',sans-serif" fill="#6C606B" id="img-fd9d60cd-3">
    <text x="19.27" y="81.72" text-anchor="middle" dy="0.6em">2000</text>
    <text x="51.34" y="81.72" text-anchor="middle" dy="0.6em">2005</text>
    <text x="83.4" y="81.72" text-anchor="middle" dy="0.6em">2010</text>
    <text x="115.45" y="81.72" text-anchor="middle" dy="0.6em">2015</text>
  </g>
  <g class="guide colorkey" id="img-fd9d60cd-4">
    <g fill="#4C404B" font-size="2.82" font-family="'PT Sans','Helvetica Neue','Helvetica',sans-serif" id="img-fd9d60cd-5">
      <text x="121.27" y="41.04" dy="0.35em" id="img-fd9d60cd-6" class="color_Emission">Emission</text>
      <text x="121.27" y="44.67" dy="0.35em" id="img-fd9d60cd-7" class="color_SoilMoisture">SoilMoisture</text>
      <text x="121.27" y="48.3" dy="0.35em" id="img-fd9d60cd-8" class="color_t2m">t2m</text>
    </g>
    <g stroke="#000000" stroke-opacity="0.000" id="img-fd9d60cd-9">
      <rect x="118.45" y="40.14" width="1.81" height="1.81" id="img-fd9d60cd-10" class="color_Emission" fill="#00BFFF"/>
      <rect x="118.45" y="43.76" width="1.81" height="1.81" id="img-fd9d60cd-11" class="color_SoilMoisture" fill="#D4CA3A"/>
      <rect x="118.45" y="47.39" width="1.81" height="1.81" id="img-fd9d60cd-12" class="color_t2m" fill="#FF6DAE"/>
    </g>
    <g fill="#362A35" font-size="3.88" font-family="'PT Sans','Helvetica Neue','Helvetica',sans-serif" stroke="#000000" stroke-opacity="0.000" id="img-fd9d60cd-13">
      <text x="118.45" y="37.22" id="img-fd9d60cd-14">Color</text>
    </g>
  </g>
<g clip-path="url(#img-fd9d60cd-15)">
  <g id="img-fd9d60cd-16">
    <g pointer-events="visible" opacity="1" fill="#000000" fill-opacity="0.000" stroke="#000000" stroke-opacity="0.000" class="guide background" id="img-fd9d60cd-17">
      <rect x="17.27" y="5" width="100.19" height="75.72" id="img-fd9d60cd-18"/>
    </g>
    <g class="guide ygridlines xfixed" stroke-dasharray="0.5,0.5" stroke-width="0.2" stroke="#D0D0E0" id="img-fd9d60cd-19">
      <path fill="none" d="M17.27,78.71 L 117.45 78.71" id="img-fd9d60cd-20"/>
      <path fill="none" d="M17.27,54.81 L 117.45 54.81" id="img-fd9d60cd-21"/>
      <path fill="none" d="M17.27,30.9 L 117.45 30.9" id="img-fd9d60cd-22"/>
      <path fill="none" d="M17.27,7 L 117.45 7" id="img-fd9d60cd-23"/>
    </g>
    <g class="guide xgridlines yfixed" stroke-dasharray="0.5,0.5" stroke-width="0.2" stroke="#D0D0E0" id="img-fd9d60cd-24">
      <path fill="none" d="M19.27,5 L 19.27 80.72" id="img-fd9d60cd-25"/>
      <path fill="none" d="M51.34,5 L 51.34 80.72" id="img-fd9d60cd-26"/>
      <path fill="none" d="M83.4,5 L 83.4 80.72" id="img-fd9d60cd-27"/>
      <path fill="none" d="M115.45,5 L 115.45 80.72" id="img-fd9d60cd-28"/>
    </g>
    <g class="plotpanel" id="img-fd9d60cd-29">
      <g stroke-width="0.3" fill="#000000" fill-opacity="0.000" class="geometry color_t2m" stroke-dasharray="none" stroke="#FF6DAE" id="img-fd9d60cd-30">
        <path fill="none" d="M19.27,30.9 L 19.41 30.9 19.55 30.91 19.69 30.91 19.83 30.9 19.97 30.91 20.11 30.91 20.25 30.91 20.39 30.9 20.53 30.9 20.67 30.9 20.81 30.91 20.95 30.91 21.09 30.91 21.23 30.9 21.37 30.9 21.51 30.91 21.65 30.9 21.79 30.9 21.93 30.9 22.07 30.91 22.22 30.9 22.36 30.9 22.5 30.9 22.64 30.91 22.78 30.9 22.92 30.9 23.06 30.91 23.2 30.91 23.34 30.9 23.48 30.91 23.62 30.9 23.76 30.9 23.9 30.91 24.04 30.91 24.18 30.9 24.32 30.9 24.46 30.91 24.6 30.9 24.74 30.91 24.88 30.91 25.02 30.91 25.16 30.9 25.31 30.91 25.45 30.9 25.59 30.9 25.69 26.95 25.83 30.4 25.97 27.43 26.11 30.27 26.25 26.77 26.39 26.42 26.53 26.32 26.67 28.12 26.81 19.21 26.96 25.79 27.1 34.08 27.24 27.7 27.38 28.01 27.52 26.74 27.66 29.2 27.8 37.22 27.94 32.87 28.08 31.96 28.22 31.11 28.36 27.97 28.5 25.5 28.64 28.73 28.78 27.31 28.92 28.18 29.06 26.55 29.2 28.52 29.34 28.01 29.48 29.29 29.62 25.4 29.76 31.04 29.9 32.46 30.05 34.23 30.19 31.17 30.33 35.64 30.47 32.53 30.61 35.51 30.75 31.11 30.89 39.09 31.03 40.76 31.17 37.56 31.31 25.29 31.45 29.84 31.59 33.74 31.73 41.82 31.87 37.87 32.01 25.14 32.1 24.91 32.24 27.89 32.38 35.16 32.52 31.25 32.66 35.22 32.8 41.98 32.94 38.27 33.08 30.6 33.22 28.14 33.36 18.87 33.5 22.9 33.64 30.42 33.78 33.6 33.93 29.85 34.07 27.36 34.21 26.26 34.35 28.65 34.49 28.29 34.63 29.37 34.77 30.42 34.91 34.07 35.05 29.69 35.19 31.72 35.33 32.11 35.47 32.68 35.61 29.47 35.75 30.86 35.89 31.72 36.03 29.72 36.17 32.58 36.31 30.45 36.45 31.32 36.59 35.62 36.73 28.88 36.87 25.65 37.01 25.21 37.16 21.72 37.3 22.54 37.44 17.66 37.58 18.02 37.72 23.57 37.86 22.59 38 24.42 38.14 29.37 38.28 30.06 38.42 29.15 38.51 33.22 38.65 22.68 38.79 22.54 38.93 25.93 39.07 19.88 39.21 26.09 39.35 23.79 39.49 20.69 39.63 27.47 39.77 39.53 39.91 25 40.05 22.53 40.19 28.56 40.33 27.3 40.47 26.34 40.61 24.56 40.75 29.95 40.89 26.62 41.04 28.81 41.18 29.18 41.32 28.44 41.46 30.5 41.6 30.84 41.74 29.83 41.88 30.49 42.02 28.52 42.16 29.46 42.3 26.28 42.44 31.66 42.58 30.47 42.72 30.1 42.86 27.5 43 30.02 43.14 27.94 43.28 25.39 43.42 31.06 43.56 36.18 43.7 25.71 43.84 17.36 43.98 25.6 44.13 23.92 44.27 36.49 44.41 35.35 44.55 27.48 44.69 33.27 44.83 23.28 44.92 28.68 45.06 40.04 45.2 31.44 45.34 26.47 45.48 26.72 45.62 29.08 45.76 30.5 45.9 26.4 46.04 29.05 46.18 28.59 46.32 23.89 46.46 42.17 46.6 27.4 46.74 27.93 46.88 28.04 47.02 27.61 47.16 28.15 47.3 27.47 47.44 28.43 47.58 29.91 47.72 31.86 47.86 29.99 48 29.73 48.15 28.1 48.29 26.97 48.43 24.04 48.57 26.84 48.71 25.49 48.85 25.04 48.99 22.83 49.13 25.97 49.27 25.42 49.41 24.09 49.55 27.31 49.69 26.25 49.83 26 49.97 24.24 50.11 25.86 50.25 34.34 50.39 24.28 50.53 23.78 50.67 22.6 50.81 32.88 50.95 24.01 51.09 25.16 51.24 25.55 51.34 20.41 51.48 21.58 51.62 22.41 51.76 22.39 51.9 27.14 52.04 27.85 52.18 24.31 52.32 25.95 52.46 18.8 52.6 15.83 52.74 23.05 52.89 38.12 53.03 30.78 53.17 24.86 53.31 23.15 53.45 23.73 53.59 22.45 53.73 26.93 53.87 27.35 54.01 26.07 54.15 22.98 54.29 25.7 54.43 24.85 54.57 24.82 54.71 24.79 54.85 26.6 54.99 23.89 55.13 25.03 55.27 24.26 55.41 24.83 55.55 28.16 55.69 26.65 55.83 27.64 55.98 27.08 56.12 32.35 56.26 31.18 56.4 28.99 56.54 35.83 56.68 27.68 56.82 38.37 56.96 41.3 57.1 35.01 57.24 24.41 57.38 22.56 57.52 22.79 57.66 25.61 57.75 25.22 57.89 30.62 58.03 39.15 58.17 52.23 58.31 39.17 58.45 27.24 58.59 28.69 58.73 36.21 58.87 27.93 59.01 23.42 59.15 27.02 59.29 23.47 59.43 28.52 59.57 37.95 59.71 39.34 59.86 32.81 60 32.4 60.14 32.25 60.28 33.59 60.42 29.21 60.56 31.14 60.7 30.92 60.84 31.04 60.98 31.89 61.12 33.29 61.26 34 61.4 34.08 61.54 36.96 61.68 36 61.82 32.6 61.96 31.84 62.1 33.24 62.24 32.88 62.38 34.34 62.52 28.16 62.66 27.48 62.8 28.29 62.94 31.65 63.09 35.5 63.23 39.64 63.37 40.77 63.51 29.53 63.65 32.48 63.79 34.84 63.93 40.13 64.07 36.77 64.16 42.4 64.3 29.38 64.44 37.37 64.58 23.73 64.72 25.15 64.86 29.35 65 35.42 65.14 39.18 65.28 59.73 65.42 40.69 65.56 40.07 65.7 28.95 65.84 31.66 65.98 33.62 66.12 33.38 66.26 31.76 66.4 33.23 66.54 32.87 66.68 35.23 66.82 33.68 66.97 32.71 67.11 30.03 67.25 30.16 67.39 27.86 67.53 32.82 67.67 30.02 67.81 30.93 67.95 29.3 68.09 28.94 68.23 28.53 68.37 27.8 68.51 27.74 68.65 28.26 68.79 29.77 68.93 31.96 69.07 35.82 69.21 39.8 69.35 28.29 69.49 29.75 69.63 32.87 69.77 31.39 69.91 23.81 70.06 30.6 70.2 33.3 70.34 33.71 70.48 31.4 70.56 47.69 70.7 50.33 70.85 28.13 70.99 30.54 71.13 32.73 71.27 36.57 71.41 38.49 71.55 32.33 71.69 29.58 71.83 33.76 71.97 51.39 72.11 26.83 72.25 34.06 72.39 32.31 72.53 37.26 72.67 40.28 72.81 35.24 72.95 35.28 73.09 33.17 73.23 35.61 73.37 35.99 73.51 33.51 73.65 33.74 73.79 36.05 73.93 32.41 74.08 34.85 74.22 32.36 74.36 30.39 74.5 32.72 74.64 34.27 74.78 36.01 74.92 36.65 75.06 36.87 75.2 33.31 75.34 36.69 75.48 32.91 75.62 36.73 75.76 35.42 75.9 35.64 76.04 32.02 76.18 31.57 76.32 39.31 76.46 29.08 76.6 24.7 76.74 24.18 76.88 51.52 76.99 38.52 77.13 27.27 77.27 28.27 77.41 37.49 77.55 38.1 77.69 32.87 77.83 31.76 77.97 28.36 78.11 26.79 78.25 51.4 78.39 33.69 78.53 31.61 78.68 34.76 78.82 34.51 78.96 27.9 79.1 29.07 79.24 32.36 79.38 30.3 79.52 28.28 79.66 31.9 79.8 32.22 79.94 33.45 80.08 32.5 80.22 30.49 80.36 29.8 80.5 34.22 80.64 35.85 80.78 37.64 80.92 37.6 81.06 36.87 81.2 35.33 81.34 34.55 81.48 32.66 81.62 34.32 81.76 29.82 81.91 26.69 82.05 29.7 82.19 34.93 82.33 34.12 82.47 33.07 82.61 42.46 82.75 39 82.89 28.84 83.03 35.39 83.17 22.12 83.31 24.37 83.4 21.04 83.54 28.88 83.68 37.15 83.82 28.77 83.96 38.18 84.1 31.59 84.24 31.51 84.38 41.21 84.52 42.35 84.66 31.16 84.8 27.97 84.94 37.24 85.08 31.71 85.22 33.98 85.36 37.09 85.5 35.75 85.64 33.73 85.79 37.09 85.93 33.71 86.07 35.1 86.21 34.16 86.35 36.53 86.49 37.16 86.63 39.71 86.77 39.25 86.91 38.81 87.05 36.77 87.19 36.95 87.33 37.7 87.47 35.04 87.61 30.93 87.75 31.75 87.89 29.82 88.03 30.46 88.17 40.26 88.31 37.19 88.45 32.29 88.59 29.71 88.73 36.25 88.88 27.62 89.02 24.99 89.16 30.87 89.3 37.25 89.44 35.57 89.58 39.77 89.72 36.26" id="img-fd9d60cd-31"/>
      </g>
      <g stroke-width="0.3" fill="#000000" fill-opacity="0.000" class="geometry color_SoilMoisture" stroke-dasharray="none" stroke="#D4CA3A" id="img-fd9d60cd-32">
        <path fill="none" d="M19.27,30.9 L 19.41 30.9 19.55 30.9 19.69 30.9 19.83 30.91 19.97 30.91 20.11 30.9 20.25 30.91 20.39 30.9 20.53 30.91 20.67 30.9 20.81 30.16 20.95 30.13 21.09 30.91 21.23 31.62 21.37 30.67 21.51 31 21.65 31.16 21.79 30.79 21.93 31.17 22.07 30.87 22.22 30.98 22.36 31.04 22.5 30.96 22.64 31.14 22.78 30.95 22.92 30.85 23.06 30.82 23.2 31.04 23.34 30.58 23.48 30.82 23.62 30.86 23.76 29.87 23.9 30.84 24.04 31.23 24.18 31.15 24.32 31.03 24.46 30.69 24.6 30.63 24.74 30.91 24.88 30.91 25.02 30.91 25.16 30.91 25.31 30.91 25.45 30.91 25.59 30.9 25.69 30.9 25.83 30.9 25.97 30.9 26.11 30.9 26.25 30.91 26.39 30.91 26.53 30.9 26.67 30.91 26.81 30.9 26.96 30.91 27.1 30.9 27.24 31.14 27.38 31.88 27.52 30.75 27.66 30.91 27.8 30.76 27.94 31.05 28.08 30.9 28.22 30.75 28.36 30.91 28.5 30.9 28.64 30.91 28.78 30.91 28.92 30.62 29.06 30.73 29.2 30.68 29.34 30.5 29.48 30.31 29.62 30.57 29.76 30.64 29.9 30.78 30.05 30.71 30.19 30.63 30.33 30.94 30.47 30.66 30.61 31.66 30.75 30.91 30.89 30.89 31.03 30.97 31.17 32.03 31.31 30.91 31.45 30.91 31.59 30.91 31.73 30.91 31.87 30.91 32.01 30.9 32.1 30.9 32.24 30.9 32.38 30.9 32.52 30.9 32.66 30.91 32.8 30.91 32.94 30.9 33.08 30.91 33.22 30.9 33.36 30.91 33.5 30.9 33.64 31.29 33.78 31.09 33.93 30.71 34.07 30.7 34.21 30.97 34.35 31.17 34.49 30.64 34.63 30.28 34.77 30.71 34.91 30.76 35.05 31.15 35.19 31.22 35.33 30.8 35.47 31.03 35.61 31.1 35.75 31.15 35.89 31.12 36.03 30.94 36.17 31.25 36.31 31.23 36.45 31.21 36.59 31.33 36.73 30.96 36.87 31.15 37.01 30.59 37.16 30.65 37.3 30.77 37.44 30.91 37.58 30.93 37.72 31 37.86 31.09 38 31.59 38.14 31.61 38.28 31.53 38.42 31.3 38.51 30.9 38.65 31.03 38.79 31.14 38.93 30.61 39.07 31.37 39.21 31.09 39.35 31.11 39.49 30.91 39.63 31.21 39.77 30.94 39.91 31.22 40.05 31.09 40.19 31.1 40.33 30.99 40.47 30.88 40.61 30.99 40.75 30.93 40.89 31 41.04 31.17 41.18 31.22 41.32 31.29 41.46 30.96 41.6 30.93 41.74 30.75 41.88 30.81 42.02 30.9 42.16 31.13 42.3 31.24 42.44 31.2 42.58 30.94 42.72 30.87 42.86 31 43 31.23 43.14 31.07 43.28 30.72 43.42 30.65 43.56 30.89 43.7 30.97 43.84 30.67 43.98 30.89 44.13 30.88 44.27 30.92 44.41 30.9 44.55 31.01 44.69 30.8 44.83 30.86 44.92 30.8 45.06 31.13 45.2 30.72 45.34 30.48 45.48 30.48 45.62 30.7 45.76 30.89 45.9 30.91 46.04 31.22 46.18 30.63 46.32 30.78 46.46 30.93 46.6 30.88 46.74 30.91 46.88 30.81 47.02 30.89 47.16 30.82 47.3 30.93 47.44 30.92 47.58 31.01 47.72 30.92 47.86 30.88 48 30.97 48.15 31.05 48.29 30.57 48.43 29.88 48.57 30.54 48.71 31.03 48.85 31.01 48.99 30.99 49.13 31.05 49.27 31.13 49.41 31.19 49.55 30.92 49.69 30.96 49.83 30.78 49.97 30.83 50.11 30.92 50.25 30.93 50.39 30.68 50.53 31.12 50.67 31.16 50.81 30.77 50.95 30.71 51.09 30.95 51.24 30.51 51.34 30.7 51.48 30.69 51.62 31.17 51.76 31.03 51.9 31.44 52.04 31.26 52.18 31.18 52.32 30.91 52.46 31.63 52.6 31.3 52.74 30.6 52.89 31 53.03 30.82 53.17 31.05 53.31 30.85 53.45 30.87 53.59 30.62 53.73 30.62 53.87 31.03 54.01 30.75 54.15 30.76 54.29 30.77 54.43 30.39 54.57 30.36 54.71 31.13 54.85 31.03 54.99 30.77 55.13 30.82 55.27 31.02 55.41 31.14 55.55 31.3 55.69 31.15 55.83 30.79 55.98 30.91 56.12 30.74 56.26 30.88 56.4 31.06 56.54 30.92 56.68 31.01 56.82 30.6 56.96 31.16 57.1 31.18 57.24 30.72 57.38 30.5 57.52 30.99 57.66 31.26 57.75 31.6 57.89 31.3 58.03 31.36 58.17 31.29 58.31 31.63 58.45 31.68 58.59 31.19 58.73 30.91 58.87 30.9 59.01 31.42 59.15 31.42 59.29 30.78 59.43 30.86 59.57 30.91 59.71 30.81 59.86 31.13 60 31 60.14 30.84 60.28 30.74 60.42 30.67 60.56 30.87 60.7 30.66 60.84 30.61 60.98 30.75 61.12 30.83 61.26 31.23 61.4 31.17 61.54 30.86 61.68 30.74 61.82 30.82 61.96 30.72 62.1 30.85 62.24 31.04 62.38 31.01 62.52 30.83 62.66 30.83 62.8 30.87 62.94 31 63.09 30.98 63.23 30.69 63.37 30.98 63.51 30.78 63.65 30.96 63.79 30.68 63.93 30.5 64.07 30.59 64.16 30.51 64.3 30.37 64.44 30.72 64.58 30.72 64.72 30.74 64.86 30.91 65 30.9 65.14 30.76 65.28 30.33 65.42 30.41 65.56 30.71 65.7 31.45 65.84 30.79 65.98 30.94 66.12 31.04 66.26 31.17 66.4 30.74 66.54 31.17 66.68 31.2 66.82 30.92 66.97 31.02 67.11 30.77 67.25 30.94 67.39 30.95 67.53 30.85 67.67 31.15 67.81 30.8 67.95 30.81 68.09 30.94 68.23 30.91 68.37 30.86 68.51 30.89 68.65 31.01 68.79 30.82 68.93 31.06 69.07 30.74 69.21 30.96 69.35 31.33 69.49 30.95 69.63 30.64 69.77 30.91 69.91 30.67 70.06 30.82 70.2 30.91 70.34 30.91 70.48 30.9 70.56 30.9 70.7 30.9 70.85 30.36 70.99 31.63 71.13 30.73 71.27 30.24 71.41 30.31 71.55 30.67 71.69 30.37 71.83 30.75 71.97 31.09 72.11 30.74 72.25 30.83 72.39 30.65 72.53 30.69 72.67 30.73 72.81 30.82 72.95 30.97 73.09 31.23 73.23 31.12 73.37 31.07 73.51 31.06 73.65 31.02 73.79 31.09 73.93 30.92 74.08 31.13 74.22 31.17 74.36 30.98 74.5 30.71 74.64 30.92 74.78 30.93 74.92 30.79 75.06 31.06 75.2 30.68 75.34 30.95 75.48 30.96 75.62 30.99 75.76 31 75.9 31.16 76.04 31.28 76.18 30.75 76.32 30.85 76.46 30.62 76.6 30.44 76.74 30.66 76.88 30.9 76.99 30.9 77.13 30.9 77.27 30.87 77.41 30.57 77.55 29.95 77.69 30.46 77.83 30.9 77.97 30.91 78.11 30.4 78.25 30.65 78.39 30.78 78.53 30.89 78.68 31.02 78.82 31.13 78.96 31.11 79.1 31.17 79.24 31.21 79.38 31.14 79.52 31.03 79.66 30.81 79.8 30.89 79.94 30.9 80.08 30.79 80.22 31.24 80.36 30.84 80.5 30.76 80.64 31.11 80.78 31.14 80.92 30.81 81.06 30.97 81.2 30.77 81.34 30.77 81.48 31.13 81.62 31.01 81.76 30.92 81.91 30.8 82.05 30.78 82.19 30.69 82.33 31.12 82.47 30.69 82.61 30.88 82.75 31.1 82.89 30.86 83.03 31.37 83.17 30.91 83.31 30.9 83.4 30.9 83.54 30.9 83.68 30.9 83.82 30.9 83.96 30.91 84.1 30.91 84.24 30.74 84.38 31.28 84.52 31.19 84.66 31.16 84.8 30.64 84.94 30.48 85.08 30.55 85.22 31.01 85.36 30.55 85.5 30.6 85.64 30.61 85.79 30.58 85.93 30.82 86.07 30.68 86.21 30.59 86.35 30.93 86.49 31.13 86.63 31.4 86.77 31.11 86.91 31.15 87.05 30.76 87.19 30.81 87.33 30.98 87.47 30.8 87.61 30.63 87.75 30.6 87.89 30.67 88.03 30.78 88.17 30.73 88.31 30.91 88.45 31.01 88.59 30.79 88.73 30.62 88.88 30.61 89.02 30.47 89.16 30.4 89.3 30.91 89.44 30.91 89.58 30.91 89.72 30.9" id="img-fd9d60cd-33"/>
      </g>
      <g stroke-width="0.3" fill="#000000" fill-opacity="0.000" class="geometry color_Emission" stroke-dasharray="none" stroke="#00BFFF" id="img-fd9d60cd-34">
        <path fill="none" d="M19.27,30.9 L 19.41 30.9 19.55 30.9 19.69 30.9 19.83 30.9 19.97 30.9 20.11 30.9 20.25 30.9 20.39 30.9 20.53 30.9 20.67 30.9 20.81 30.9 20.95 30.9 21.09 30.9 21.23 30.9 21.37 30.9 21.51 30.9 21.65 30.9 21.79 30.9 21.93 30.9 22.07 30.9 22.22 30.9 22.36 30.9 22.5 30.9 22.64 30.9 22.78 30.9 22.92 30.9 23.06 30.9 23.2 30.9 23.34 30.9 23.48 30.9 23.62 30.9 23.76 30.9 23.9 30.9 24.04 30.9 24.18 30.9 24.32 30.9 24.46 30.9 24.6 30.9 24.74 30.9 24.88 30.9 25.02 30.9 25.16 30.9 25.31 30.9 25.45 30.9 25.59 30.9 25.69 30.9 25.83 30.9 25.97 30.9 26.11 30.9 26.25 30.9 26.39 30.9 26.53 30.9 26.67 30.9 26.81 30.9 26.96 30.9 27.1 30.9 27.24 30.97 27.38 31.08 27.52 31.08 27.66 31.08 27.8 30.9 27.94 30.9 28.08 30.9 28.22 30.9 28.36 30.9 28.5 30.9 28.64 30.9 28.78 30.9 28.92 30.9 29.06 30.9 29.2 30.9 29.34 30.9 29.48 30.9 29.62 30.9 29.76 30.9 29.9 30.9 30.05 30.9 30.19 30.9 30.33 30.9 30.47 30.9 30.61 30.9 30.75 30.9 30.89 30.9 31.03 30.9 31.17 30.9 31.31 30.9 31.45 30.9 31.59 30.9 31.73 30.9 31.87 30.9 32.01 30.9 32.1 30.9 32.24 30.9 32.38 30.9 32.52 30.9 32.66 30.9 32.8 30.9 32.94 30.9 33.08 30.9 33.22 30.9 33.36 30.9 33.5 30.9 33.64 30.97 33.78 31.08 33.93 31.08 34.07 31.08 34.21 30.9 34.35 30.9 34.49 30.9 34.63 30.9 34.77 30.9 34.91 30.9 35.05 30.9 35.19 30.9 35.33 30.9 35.47 30.9 35.61 30.9 35.75 30.9 35.89 30.9 36.03 30.9 36.17 30.9 36.31 30.9 36.45 30.9 36.59 30.9 36.73 30.9 36.87 30.9 37.01 30.9 37.16 30.9 37.3 30.9 37.44 30.9 37.58 30.9 37.72 30.9 37.86 30.9 38 30.9 38.14 30.9 38.28 30.9 38.42 30.9 38.51 30.9 38.65 30.9 38.79 30.9 38.93 30.9 39.07 30.9 39.21 30.9 39.35 30.9 39.49 30.9 39.63 30.9 39.77 30.9 39.91 30.9 40.05 30.97 40.19 31.08 40.33 31.08 40.47 31.08 40.61 30.9 40.75 30.9 40.89 30.9 41.04 30.9 41.18 30.9 41.32 30.9 41.46 30.9 41.6 30.9 41.74 30.9 41.88 30.9 42.02 30.9 42.16 30.9 42.3 30.9 42.44 30.9 42.58 30.9 42.72 30.9 42.86 30.9 43 30.9 43.14 30.9 43.28 30.9 43.42 30.9 43.56 30.9 43.7 30.9 43.84 30.9 43.98 30.9 44.13 30.9 44.27 30.9 44.41 30.9 44.55 30.9 44.69 30.9 44.83 30.9 44.92 30.9 45.06 30.9 45.2 30.9 45.34 30.9 45.48 30.9 45.62 30.9 45.76 30.9 45.9 30.9 46.04 30.9 46.18 30.9 46.32 30.9 46.46 30.97 46.6 31.08 46.74 31.08 46.88 31.08 47.02 30.9 47.16 30.9 47.3 30.9 47.44 30.9 47.58 30.9 47.72 30.9 47.86 30.9 48 30.9 48.15 30.9 48.29 30.9 48.43 30.9 48.57 30.9 48.71 30.9 48.85 30.9 48.99 30.9 49.13 30.9 49.27 30.9 49.41 30.9 49.55 30.9 49.69 30.9 49.83 30.9 49.97 30.9 50.11 30.9 50.25 30.9 50.39 30.9 50.53 30.9 50.67 30.9 50.81 30.9 50.95 30.9 51.09 30.9 51.24 30.9 51.34 30.9 51.48 30.9 51.62 30.9 51.76 30.9 51.9 30.9 52.04 30.9 52.18 30.9 52.32 30.9 52.46 30.9 52.6 30.9 52.74 30.9 52.89 30.97 53.03 31.08 53.17 31.08 53.31 31.08 53.45 30.9 53.59 30.9 53.73 30.9 53.87 30.9 54.01 30.9 54.15 30.9 54.29 30.9 54.43 30.9 54.57 30.9 54.71 30.9 54.85 30.9 54.99 30.9 55.13 30.9 55.27 30.9 55.41 30.9 55.55 30.9 55.69 30.9 55.83 30.9 55.98 30.9 56.12 30.9 56.26 30.9 56.4 30.9 56.54 30.9 56.68 30.9 56.82 30.9 56.96 30.9 57.1 30.9 57.24 30.9 57.38 30.9 57.52 30.9 57.66 30.9 57.75 30.9 57.89 30.9 58.03 30.9 58.17 30.9 58.31 30.9 58.45 30.9 58.59 30.9 58.73 30.9 58.87 30.9 59.01 30.9 59.15 30.9 59.29 30.32 59.43 29.33 59.57 29.33 59.71 29.33 59.86 30.9 60 30.9 60.14 30.9 60.28 30.9 60.42 30.9 60.56 30.9 60.7 30.9 60.84 30.9 60.98 30.9 61.12 30.9 61.26 30.9 61.4 30.9 61.54 30.9 61.68 30.9 61.82 30.9 61.96 30.9 62.1 30.9 62.24 30.9 62.38 30.9 62.52 30.9 62.66 30.9 62.8 30.9 62.94 30.9 63.09 30.9 63.23 30.9 63.37 30.9 63.51 30.9 63.65 30.9 63.79 30.9 63.93 30.9 64.07 30.9 64.16 30.9 64.3 30.9 64.44 30.9 64.58 30.9 64.72 30.9 64.86 30.9 65 30.9 65.14 30.9 65.28 30.9 65.42 30.9 65.56 30.9 65.7 30.97 65.84 31.08 65.98 31.08 66.12 31.08 66.26 30.9 66.4 30.9 66.54 30.9 66.68 30.9 66.82 30.9 66.97 30.9 67.11 30.9 67.25 30.9 67.39 30.9 67.53 30.9 67.67 30.9 67.81 30.9 67.95 30.9 68.09 30.9 68.23 30.9 68.37 30.9 68.51 30.9 68.65 30.9 68.79 30.9 68.93 30.9 69.07 30.9 69.21 30.9 69.35 30.9 69.49 30.9 69.63 30.9 69.77 30.9 69.91 30.9 70.06 30.9 70.2 30.9 70.34 30.9 70.48 30.9 70.56 30.9 70.7 30.9 70.85 30.9 70.99 30.9 71.13 30.9 71.27 30.9 71.41 30.9 71.55 30.9 71.69 30.9 71.83 30.9 71.97 30.9 72.11 30.97 72.25 31.08 72.39 31.08 72.53 31.08 72.67 30.9 72.81 30.9 72.95 30.9 73.09 30.9 73.23 30.9 73.37 30.9 73.51 30.9 73.65 30.9 73.79 30.9 73.93 30.9 74.08 30.9 74.22 30.9 74.36 30.9 74.5 30.9 74.64 30.9 74.78 30.9 74.92 30.9 75.06 30.9 75.2 30.9 75.34 30.9 75.48 30.9 75.62 30.9 75.76 30.9 75.9 30.9 76.04 30.9 76.18 30.9 76.32 30.9 76.46 30.9 76.6 30.9 76.74 30.9 76.88 30.9 76.99 30.9 77.13 30.9 77.27 30.9 77.41 30.9 77.55 30.9 77.69 30.9 77.83 30.9 77.97 30.9 78.11 30.9 78.25 30.9 78.39 30.9 78.53 30.97 78.68 31.08 78.82 31.08 78.96 31.08 79.1 30.9 79.24 30.9 79.38 30.9 79.52 30.9 79.66 30.9 79.8 30.9 79.94 30.9 80.08 30.9 80.22 30.9 80.36 30.9 80.5 30.9 80.64 30.9 80.78 30.9 80.92 30.9 81.06 30.9 81.2 30.9 81.34 30.9 81.48 30.9 81.62 30.9 81.76 30.9 81.91 30.9 82.05 30.9 82.19 30.9 82.33 30.9 82.47 30.9 82.61 30.9 82.75 30.9 82.89 30.9 83.03 30.9 83.17 30.9 83.31 30.9 83.4 30.9 83.54 30.9 83.68 30.9 83.82 30.9 83.96 30.9 84.1 30.9 84.24 30.9 84.38 30.9 84.52 30.9 84.66 30.9 84.8 30.9 84.94 30.97 85.08 31.08 85.22 31.08 85.36 31.08 85.5 30.9 85.64 30.9 85.79 30.9 85.93 30.9 86.07 30.9 86.21 30.9 86.35 30.9 86.49 30.9 86.63 30.9 86.77 30.9 86.91 30.9 87.05 30.9 87.19 30.9 87.33 30.9 87.47 30.9 87.61 30.9 87.75 30.9 87.89 30.9 88.03 30.9 88.17 30.9 88.31 30.9 88.45 30.9 88.59 30.9 88.73 30.9 88.88 30.9 89.02 30.9 89.16 30.9 89.3 30.9 89.44 30.9 89.58 30.9 89.72 30.9" id="img-fd9d60cd-35"/>
      </g>
    </g>
  </g>
</g>
  <g class="guide ylabels" font-size="2.82" font-family="'PT Sans Caption','Helvetica Neue','Helvetica',sans-serif" fill="#6C606B" id="img-fd9d60cd-36">
    <text x="16.27" y="78.71" text-anchor="end" dy="0.35em" id="img-fd9d60cd-37">-10</text>
    <text x="16.27" y="54.81" text-anchor="end" dy="0.35em" id="img-fd9d60cd-38">-5</text>
    <text x="16.27" y="30.9" text-anchor="end" dy="0.35em" id="img-fd9d60cd-39">0</text>
    <text x="16.27" y="7" text-anchor="end" dy="0.35em" id="img-fd9d60cd-40">5</text>
  </g>
  <g font-size="3.88" font-family="'PT Sans','Helvetica Neue','Helvetica',sans-serif" fill="#564A55" stroke="#000000" stroke-opacity="0.000" id="img-fd9d60cd-41">
    <text x="8.81" y="42.86" text-anchor="end" dy="0.35em" id="img-fd9d60cd-42">y</text>
  </g>
</g>
<defs>
  <clipPath id="img-fd9d60cd-15">
  <path d="M17.27,5 L 117.45 5 117.45 80.72 17.27 80.72" />
</clipPath>
</defs>
</svg>
